<?xml version="1.0" encoding="utf-8"?>
<!-- Generator: Adobe Illustrator 23.0.5, SVG Export Plug-In . SVG Version: 6.00 Build 0)  -->
<svg version="1.1" xmlns="http://www.w3.org/2000/svg" xmlns:xlink="http://www.w3.org/1999/xlink" x="0px" y="0px"
	 viewBox="0 0 750 500" style="enable-background:new 0 0 750 500;" xml:space="preserve">
<style type="text/css">
	.st0{fill:#D2E4FF;}
	.st1{fill:#1B205E;}
	.st2{opacity:0.4;}
	.st3{fill:#1D255B;}
	.st4{fill:#FAD0BF;}
	.st5{opacity:0.2;}
	.st6{fill:#FA7296;}
	.st7{fill:#CC5252;}
	.st8{opacity:0.3;}
	.st9{opacity:0.6;}
	.st10{fill:#7986B9;}
	.st11{fill:#FFFFFF;}
	.st12{fill:#5789E3;}
	.st13{opacity:0.2;fill:#FA7296;}
	.st14{opacity:0.4;fill:#1D255B;}
	.st15{fill:#4052A0;}
	.st16{opacity:0.2;fill:#1D255B;}
	.st17{opacity:0.5;fill:#1D255B;}
	.st18{opacity:0.8;fill:#C87568;}
	.st19{opacity:0.5;fill:#CC5252;}
	.st20{fill:#65A1FF;}
	.st21{fill:#963E35;}
	.st22{fill:#BA5443;}
</style>
<g id="BACKGROUND">
</g>
<g id="OBJECTS_1_">
	<g>
		<path class="st0" d="M299.94,461.76c0,9.63,33.47,17.43,74.76,17.43c41.29,0,74.75-7.8,74.75-17.43s-33.47-17.43-74.75-17.43
			C333.41,444.33,299.94,452.13,299.94,461.76z"/>
		<g>
			<g>
				<g>
					<g>
						<g>
							<path class="st1" d="M343.25,128.69c-2.08-3.25-6.26-6.26-15.63,3.77c-3.3,3.53-4.54,30.76-4.54,30.76l-6.67,55.75
								l-15.35,52.95c0,0,13.85,13.7,23.01,7.5c0,0,8.75-22.36,16.74-58.55C348.64,185.37,350.37,139.83,343.25,128.69z"/>
						</g>
					</g>
					<g class="st2">
						<g>
							<path class="st3" d="M343.25,128.69c-2.08-3.25-6.26-6.26-15.63,3.77c-3.3,3.53-4.54,30.76-4.54,30.76l-6.67,55.75
								l-15.35,52.95c0,0,13.85,13.7,23.01,7.5c0,0,8.75-22.36,16.74-58.55C348.64,185.37,350.37,139.83,343.25,128.69z"/>
						</g>
					</g>
					<g class="st2">
						<g>
							<path class="st3" d="M324.07,228.5c-0.7-5.41-4.03-8.11-7.9-8.68l0.25-0.86l0.38-3.2c0.26-0.05,0.51-0.1,0.77-0.18
								c29.83-8.28,16.95-57.01,18.08-79.3c0.19-3.67-1.01-6.47-2.94-8.42c5.87-4.17,8.87-1.76,10.53,0.83
								c7.12,11.14,5.39,56.68-2.44,92.17c-7.98,36.2-16.74,58.55-16.74,58.55c-2.95,2-6.38,1.92-9.68,0.91
								C321.3,263.83,326.43,246.7,324.07,228.5z"/>
						</g>
					</g>
				</g>
				<g>
					<g>
						<g>
							<path class="st4" d="M321.06,279.42c1.49,1.53,1.65,3.53,1.61,6.25c-0.03,1.48-0.13,2.96-0.67,4.33
								c0.92,1.02,2.55,1.25,3.47,2.54c0.91,1.27,1.46,2.55,1.52,4.16c0.11,3.13-1.24,5.93-4.16,6.84c-1.25,0.39-2.38,0.12-3.61,0.3
								c-1.4,0.2-2.56,0.5-4.01,0.31c-8.22-1.09-12.76-2.28-15.5-8.68c-2.74-6.38,1.93-19.39,3.48-20.68
								c0.57-0.47,1.72-0.28,2.38-0.24c1.46,0.1,2.91,0.35,4.34,0.64c3.05,0.62,6.24,1.39,9.07,2.79
								C319.88,278.41,320.55,278.89,321.06,279.42z"/>
						</g>
						<g class="st5">
							<path class="st6" d="M321.06,279.42c1.49,1.53,1.65,3.53,1.61,6.25c-0.03,1.48-0.13,2.96-0.67,4.33
								c0.92,1.02,2.55,1.25,3.47,2.54c0.91,1.27,1.46,2.55,1.52,4.16c0.11,3.13-1.24,5.93-4.16,6.84c-1.25,0.39-2.38,0.12-3.61,0.3
								c-1.4,0.2-2.56,0.5-4.01,0.31c-8.22-1.09-12.76-2.28-15.5-8.68c-2.74-6.38,1.93-19.39,3.48-20.68
								c0.57-0.47,1.72-0.28,2.38-0.24c1.46,0.1,2.91,0.35,4.34,0.64c3.05,0.62,6.24,1.39,9.07,2.79
								C319.88,278.41,320.55,278.89,321.06,279.42z"/>
						</g>
						<g class="st5">
							<path class="st6" d="M325.71,292.89c-3.12-1.12-6.4-1.88-9.84-2.16c-5.87-0.46-11.56,0.51-16.76,2.53
								c-1.18-6.78,2.7-17.33,4.09-18.49c0.57-0.47,1.72-0.28,2.38-0.24c1.46,0.1,2.91,0.35,4.34,0.64
								c3.05,0.62,6.24,1.39,9.07,2.79c0.88,0.44,1.55,0.91,2.06,1.44c1.49,1.53,1.65,3.53,1.61,6.25
								c-0.03,1.48-0.13,2.96-0.67,4.33c0.92,1.02,2.55,1.25,3.47,2.54C325.57,292.65,325.63,292.77,325.71,292.89z"/>
						</g>
						<g>
							<path class="st6" d="M314.1,294.19c-0.01,0.04-0.02,0.08-0.03,0.11c-0.08-0.65-0.32-1.28-0.63-1.78
								c-1.13-1.72-2.84-2.59-4.12-2.84c-0.33-0.06-0.64-0.09-0.9-0.09c0.04-0.15,0.06-0.24,0.06-0.24s0.03-0.32,0.05-0.73
								c0.33,0.14,1.67,0.17,3.01-0.24c0.45-0.14,0.88-0.33,1.28-0.53c0.16,0.06,0.32,0.13,0.48,0.25c0.83,0.59,1.23,2.28,1.12,3.81
								C314.34,292.7,314.33,293.5,314.1,294.19z"/>
							<path class="st6" d="M315.08,301.67c1.24-0.79,2.28-1.92,2.92-2.88c0.65-0.94,0.92-1.67,0.92-1.67s0.38-0.65,0.62-1.79
								c0.24-1.13,0.31-2.79-0.19-4.28c-0.25-0.74-0.63-1.4-1.12-1.87c-0.51-0.44-1.08-0.68-1.61-0.76
								c-1.06-0.13-1.8,0.15-1.83,0.01c-0.02-0.05,0.65-0.53,1.85-0.58c0.6,0,1.33,0.18,2,0.67c0.65,0.51,1.19,1.29,1.53,2.13
								c0.71,1.72,0.72,3.62,0.51,4.98c-0.23,1.37-0.64,2.19-0.64,2.19c0,0-0.36,0.83-1.14,1.84c-0.77,1.01-1.98,2.17-3.41,2.93
								c-1.42,0.77-3.06,1-4.22,0.65c-1.17-0.31-1.78-0.93-1.74-0.99c0.05-0.11,0.73,0.31,1.81,0.43
								C312.42,302.84,313.85,302.48,315.08,301.67z"/>
							<path class="st6" d="M317.77,303.41c1.27-0.59,2.4-1.51,3.14-2.31c0.76-0.79,1.13-1.41,1.13-1.41c0,0,0.12-0.14,0.28-0.4
								c0.19-0.26,0.39-0.62,0.56-1.14c0.38-1.03,0.66-2.61,0.56-4.16c-0.08-1.54-0.68-3.06-1.62-3.53
								c-0.9-0.52-1.68-0.41-1.68-0.56c-0.02-0.04,0.73-0.4,1.87,0.04c1.22,0.41,2.13,2.24,2.32,3.95c0.23,1.74,0.03,3.49-0.35,4.75
								c-0.18,0.64-0.44,1.17-0.63,1.48c-0.19,0.34-0.31,0.49-0.31,0.49s-0.47,0.7-1.35,1.51c-0.87,0.83-2.17,1.73-3.6,2.26
								c-1.42,0.57-3,0.61-4.11,0.26c-1.11-0.35-1.69-0.94-1.66-1c0.05-0.11,0.71,0.29,1.74,0.44
								C315.1,304.24,316.5,304.05,317.77,303.41z"/>
							<path class="st6" d="M325.38,299.69c0.31-0.71,0.33-1.28,0.35-1.27c0,0,0.18-0.51,0.24-1.32c0.08-0.8,0.05-1.91-0.38-2.91
								c-0.77-2.09-2.71-3.38-2.58-3.57c0.02-0.14,2.2,0.77,3.38,3.12c0.62,1.14,0.78,2.5,0.75,3.47c0,0.99-0.18,1.61-0.18,1.61
								s-0.04,0.15-0.11,0.42c-0.05,0.28-0.22,0.64-0.42,1.07c-0.36,0.89-1.18,1.88-2.14,2.52c-2.02,1.33-4.29,0.85-4.25,0.71
								c-0.02-0.24,2.18-0.22,3.74-1.58C324.56,301.31,325.14,300.46,325.38,299.69z"/>
						</g>
					</g>
					<g>
						<g>
							<g>
								<polygon class="st7" points="368.99,245.72 283.03,213 259.42,273.61 345.38,306.33 								"/>
								<g class="st8">
									<polygon class="st7" points="283.6,215.33 260.7,274.09 259.42,273.61 283.03,213 368.99,245.72 368.27,247.56 									
										"/>
								</g>
								<g class="st9">
									<g>
										<polygon class="st7" points="283.03,213 368.99,245.72 345.38,306.33 										"/>
									</g>
								</g>
							</g>
							<g>
								<g class="st8">
									<polygon class="st10" points="281.92,235.76 273.93,256.27 267.18,253.7 275.17,233.19 									"/>
								</g>
								<g class="st8">
									<polygon class="st10" points="280.6,235.83 269.84,231.73 261.86,252.24 272.61,256.34 									"/>
								</g>
								<polygon class="st11" points="280.15,236.91 269.4,232.82 261.41,253.32 272.16,257.42 								"/>
								<polygon class="st12" points="280.15,236.91 269.4,232.82 261.41,253.32 272.16,257.42 								"/>
								<g class="st5">
									<polyline class="st12" points="272.16,257.42 280.15,236.91 269.4,232.82 									"/>
								</g>
							</g>
						</g>
					</g>
					<g>
						<g>
							<path class="st4" d="M317.16,288c0.86,0.25,2.06,0.94,2.2,1.82c1.84,0.12,4.97,1.12,6.12,2.72c0.91,1.27,1.46,2.55,1.52,4.16
								c0.11,3.13-1.24,5.93-4.16,6.84c-1.25,0.39-2.38,0.12-3.61,0.3c-1.4,0.2-2.56,0.5-4.01,0.31
								c-4.74-0.64-10.01-1.34-13.47-4.99c-4.48-4.73,4.87-3.75,6.16-7.22c0.6-1.63,0.14-3.31,2.02-4.11
								c0.92-0.39,4.63-0.45,4.21,1.19C314.91,288.04,315.73,287.59,317.16,288z"/>
						</g>
						<path class="st13" d="M324.64,291.71c-0.47-0.34-0.98-0.59-1.47-0.87c-1.29-0.59-2.76-0.96-3.81-1.03
							c-0.15-0.87-1.34-1.57-2.2-1.82c-1.44-0.41-2.25,0.04-3.02,1c0.42-1.64-3.29-1.58-4.21-1.19c-1.5,0.64-1.52,1.85-1.77,3.14
							c2.52-0.33,5.1-0.42,7.71-0.22c3.44,0.27,6.72,1.04,9.84,2.16c-0.08-0.12-0.14-0.24-0.23-0.36c-0.22-0.31-0.49-0.55-0.77-0.77
							C324.68,291.75,324.66,291.73,324.64,291.71z"/>
						<g>
							<path class="st6" d="M314.17,288.11c-0.15-0.2-0.35-0.39-0.58-0.55c-0.7-0.51-2.42-0.61-3.12,0.08
								c0.36-0.36,2.99,0.6,3.28,0.93c0.7,0.82,0.74,2.34,0.67,3.34c-0.28,3.75-1.42,5.91-4.38,8.3c-0.52,0.33-1.14,0.61-1.81,0.7
								c-1.34,0.21-2.74-0.22-3.73-0.71c-0.99-0.49-1.57-1.01-1.65-0.91c-0.04,0.04,0.44,0.73,1.43,1.41
								c0.97,0.67,2.46,1.33,4.05,1.24c0.79-0.04,1.56-0.31,2.25-0.69c0.6-0.42,1.2-0.71,1.64-1.16c0.44-0.45,0.83-0.81,1.06-1.1
								c0.2-0.3,0.31-0.48,0.31-0.48c-0.04-0.04,0.53-0.66,0.95-1.9c0.11-0.3,0.23-0.63,0.36-0.98c0.1-0.35,0.15-0.76,0.23-1.16
								c0.2-0.8,0.17-1.68,0.19-2.55C315.33,290.59,315.01,289.19,314.17,288.11z"/>
							<path class="st6" d="M315.08,301.67c1.24-0.79,2.28-1.92,2.92-2.88c0.65-0.94,0.92-1.67,0.92-1.67s0.38-0.65,0.62-1.79
								c0.24-1.13,0.31-2.79-0.19-4.28c-0.25-0.74-0.63-1.4-1.12-1.87c-0.51-0.44-1.08-0.68-1.61-0.76
								c-1.06-0.13-1.8,0.15-1.83,0.01c-0.02-0.05,0.65-0.53,1.85-0.58c0.6,0,1.33,0.18,2,0.67c0.65,0.51,1.19,1.29,1.53,2.13
								c0.71,1.72,0.72,3.62,0.51,4.98c-0.23,1.37-0.64,2.19-0.64,2.19c0,0-0.36,0.83-1.14,1.84c-0.77,1.01-1.98,2.17-3.41,2.93
								c-1.42,0.77-3.06,1-4.22,0.65c-1.17-0.31-1.78-0.93-1.74-0.99c0.05-0.11,0.73,0.31,1.81,0.43
								C312.42,302.84,313.85,302.48,315.08,301.67z"/>
							<path class="st6" d="M317.77,303.41c1.27-0.59,2.4-1.51,3.14-2.31c0.76-0.79,1.13-1.41,1.13-1.41c0,0,0.12-0.14,0.28-0.4
								c0.19-0.26,0.39-0.62,0.56-1.14c0.38-1.03,0.66-2.61,0.56-4.16c-0.08-1.54-0.68-3.06-1.62-3.53
								c-0.9-0.52-1.68-0.41-1.68-0.56c-0.02-0.04,0.73-0.4,1.87,0.04c1.22,0.41,2.13,2.24,2.32,3.95c0.23,1.74,0.03,3.49-0.35,4.75
								c-0.18,0.64-0.44,1.17-0.63,1.48c-0.19,0.34-0.31,0.49-0.31,0.49s-0.47,0.7-1.35,1.51c-0.87,0.83-2.17,1.73-3.6,2.26
								c-1.42,0.57-3,0.61-4.11,0.26c-1.11-0.35-1.69-0.94-1.66-1c0.05-0.11,0.71,0.29,1.74,0.44
								C315.1,304.24,316.5,304.05,317.77,303.41z"/>
							<path class="st6" d="M325.38,299.69c0.31-0.71,0.33-1.28,0.35-1.27c0,0,0.18-0.51,0.24-1.32c0.08-0.8,0.05-1.91-0.38-2.91
								c-0.77-2.09-2.71-3.38-2.58-3.57c0.02-0.14,2.2,0.77,3.38,3.12c0.62,1.14,0.78,2.5,0.75,3.47c0,0.99-0.18,1.61-0.18,1.61
								s-0.04,0.15-0.11,0.42c-0.05,0.28-0.22,0.64-0.42,1.07c-0.36,0.89-1.18,1.88-2.14,2.52c-2.02,1.33-4.29,0.85-4.25,0.71
								c-0.02-0.24,2.18-0.22,3.74-1.58C324.56,301.31,325.14,300.46,325.38,299.69z"/>
						</g>
					</g>
				</g>
			</g>
			<g>
				<g>
					<path class="st1" d="M343.14,427.88c-0.05,1.18-1.76,12.12-1.76,12.12s-28.01,19.96-25.36,22.84
						c2.65,2.87,28.74-10.09,32.57-15.43l3.72-19.9L343.14,427.88z"/>
					<path class="st14" d="M343.14,427.88c-0.05,1.18-1.76,12.12-1.76,12.12s-0.08,0.05-0.18,0.13c0.74,2.85-0.18,5.92-2.28,8.28
						c-1.03,2.14-2.62,3.98-4.88,5.25c-0.44,0.25-0.9,0.46-1.36,0.64c-2.07,1.53-4.36,2.71-6.93,3.03c-1.96,0.25-3.83,0.12-5.5-0.59
						c-3.08,2.89-5,5.25-4.21,6.11c2.65,2.87,28.74-10.09,32.57-15.43l3.72-19.9L343.14,427.88z"/>
				</g>
				<g>
					<path class="st1" d="M413.61,436.31c0.01,1.18,1.3,12.17,1.3,12.17s27.23,20.99,24.47,23.77
						c-2.76,2.77-28.33-11.16-31.96-16.63l-2.96-20.02L413.61,436.31z"/>
					<path class="st14" d="M436.53,467.16c-2.51,0.33-5.22-0.24-7.46-1.28c-5.44-2.52-10.63-6.38-13.8-11.52
						c-1.28-2.07-1.3-4.56-0.46-6.76c-0.31-2.61-1.19-10.32-1.2-11.3l-9.15-0.71l2.96,20.02c3.63,5.47,29.2,19.4,31.96,16.63
						C440.08,471.54,438.81,469.62,436.53,467.16z"/>
				</g>
				<g>
					<path class="st15" d="M343.8,243.78c0,0-3.77,67.69-4.21,77.12c-0.44,9.42-1.75,24.71-2.31,36.49
						c-0.55,11.77,3.03,62.7,4.32,73.38c0,0,5.22,3.19,10.75-0.1c0,0,7.49-45.11,8.91-62.75c1.42-17.64,11.89-62.6,11.89-62.6
						s14.42,49.05,15.76,58.56c1.35,9.5,13.86,73.82,13.86,73.82s9.74,8.71,13.78-1.14c0,0-2.26-53.81-3.13-73.33
						c-0.88-19.51-8.31-64.71-7.22-75.28c1.1-10.58-4.3-35.61-4.4-46.24C401.72,231.08,351.99,234.71,343.8,243.78z"/>
					<path class="st16" d="M413.25,360.03c-5.09,2.69-12.32,1.15-16.37-2.75c-15.18-14.57-15.07-40.1-15.79-59.47
						c-0.26-7.07,7.01-12.65,13.7-12.34c0.55,0.02,1.08,0.09,1.6,0.17c3.42-0.63,7.03-0.04,9.86,1.88
						c0.92-10.79-4.34-35.32-4.44-45.82c-0.1-10.62-49.82-7-58.01,2.07c0,0-1.12,20.04-2.2,39.83c6.35-1.02,13.03,2.82,16.55,8.56
						c7.05,11.45,4.27,23.71,3.17,36.22c-0.96,10.88-0.17,24.05-7.71,32.95c-4,4.72-10.7,7.34-16.28,4.97
						c0.55,18.89,3.2,55.58,4.28,64.46c0,0,5.22,3.19,10.75-0.1c0,0,7.49-45.11,8.91-62.75c1.42-17.64,11.89-62.6,11.89-62.6
						s14.42,49.05,15.76,58.56c1.35,9.5,13.86,73.82,13.86,73.82s9.74,8.71,13.78-1.14c0,0-2.26-53.81-3.13-73.33
						C413.39,362.24,413.33,361.15,413.25,360.03z"/>
					<path class="st17" d="M363.41,276.89c-1.38-0.74-2.84-1.35-4-1.65c-1.14-0.33-1.94-0.45-1.93-0.54c0-0.05,0.82-0.08,2.03,0.13
						c1.21,0.18,2.77,0.69,4.26,1.37c1.48,0.71,2.85,1.6,3.83,2.33c0.97,0.74,1.59,1.28,1.59,1.28s2.39,2.25,4.18,4.96
						c1.84,2.67,3.02,5.68,2.88,5.74c-0.14,0.06-1.57-2.79-3.53-5.28c-1.92-2.53-4.3-4.6-4.3-4.6s-0.57-0.54-1.47-1.29
						C366.05,278.58,364.78,277.66,363.41,276.89z M367.42,285.1c0.81,0.61,1.35,1.01,1.35,1.01s0.53,0.42,1.33,1.04
						c0.83,0.59,1.78,1.54,2.79,2.45c1.92,1.91,3.46,4.15,3.61,4.06c0.11-0.06-1.21-2.49-3.03-4.59c-0.96-1-1.89-2.04-2.7-2.69
						c-0.78-0.69-1.31-1.14-1.31-1.14s-0.57-0.39-1.44-0.97c-0.84-0.61-2.08-1.25-3.28-1.93c-2.47-1.26-5.08-2.16-5.13-2.03
						c-0.06,0.15,2.42,1.31,4.74,2.71C365.47,283.77,366.64,284.46,367.42,285.1z M391.05,365.07c-1.05-3.87-2.63-8.97-4.18-14.09
						c-3.17-10.21-6.2-20.44-6.2-20.44s-0.74-2.56-1.85-6.39c-1.19-3.81-2.4-8.99-3.75-14.14c-1.04-5.21-2.31-10.39-2.8-14.35
						c-0.32-1.97-0.59-3.61-0.77-4.76c-0.2-1.15-0.33-1.81-0.37-1.8c-0.04,0,0.01,0.67,0.14,1.83c0.14,1.16,0.33,2.81,0.56,4.8
						c0.25,2.74,0.86,6.06,1.54,9.56c-0.11,0.23-0.28,0.56-0.48,0.99c-0.37,0.87-1,2.07-1.54,3.6c-1.22,3.01-2.51,7.15-3.61,11.34
						c-1.04,4.2-1.89,8.44-2.46,11.63c-0.54,3.2-0.9,5.33-0.9,5.33s-1.15,8.57-2.29,17.14c-0.6,4.28-1.27,8.54-1.87,11.73
						c-0.26,1.6-0.58,2.91-0.74,3.85c-0.18,0.93-0.26,1.46-0.23,1.47c0.04,0.01,0.2-0.51,0.45-1.42c0.23-0.92,0.62-2.22,0.95-3.81
						c0.74-3.16,1.52-7.42,2.23-11.69c1.31-8.55,2.62-17.1,2.62-17.1s0.32-2.12,0.81-5.32c0.5-3.19,1.27-7.42,2.2-11.62
						c0.99-4.18,2.16-8.33,3.25-11.37c0.48-1.54,1.04-2.77,1.34-3.66c0.14-0.35,0.23-0.63,0.31-0.85c0.29,1.53,0.6,3.1,0.88,4.67
						c1.25,5.19,2.39,10.4,3.53,14.25c1.07,3.85,1.77,6.42,1.77,6.42s3.15,10.22,6.52,20.37c1.64,5.08,3.34,10.15,4.51,13.98
						c0.62,1.91,1.13,3.5,1.49,4.61c0.37,1.11,0.59,1.74,0.63,1.73c0.04-0.01-0.11-0.66-0.42-1.79
						C392.02,368.61,391.58,367,391.05,365.07z M410.26,353.64c0.63,5.81,1.26,11.61,1.26,11.61s0.16,1.46,0.4,3.64
						c0.28,2.17,0.46,5.09,0.71,8c0.12,2.91,0.32,5.84,0.28,8.03c0.02,2.19,0.06,3.66,0.14,3.66c0.08,0,0.18-1.46,0.29-3.66
						c0.17-2.2,0.1-5.13,0.08-8.07c-0.14-2.93-0.25-5.88-0.47-8.06c-0.19-2.19-0.31-3.66-0.31-3.66s-0.73-5.81-1.59-11.59
						c-0.42-2.89-0.84-5.78-1.16-7.95c-0.31-2.17-0.55-3.61-0.63-3.6c-0.08,0,0.01,1.46,0.2,3.65
						C409.62,347.83,409.95,350.74,410.26,353.64z M401.34,273.16c0.09-0.14-2.82-2.05-5.51-4.2c-2.67-2.18-5.01-4.67-5.01-4.67
						s-0.57-0.63-1.44-1.57c-0.22-0.24-0.45-0.49-0.7-0.75c-0.22-0.29-0.45-0.6-0.7-0.92c-0.47-0.64-1.01-1.3-1.5-2
						c-1.9-2.84-3.13-6.06-3.32-5.99c-0.08,0.02,0.18,0.84,0.62,2.07c0.36,1.27,1.23,2.78,2.03,4.33c0.45,0.74,0.97,1.45,1.42,2.13
						c0.23,0.34,0.46,0.67,0.67,0.97c0.24,0.29,0.47,0.56,0.68,0.81c0.85,1,1.41,1.67,1.41,1.67s2.5,2.48,5.34,4.54
						c1.45,0.97,2.88,1.98,4.04,2.6C400.53,272.83,401.3,273.22,401.34,273.16z M348.93,258.05c0.13-0.92,0.08-2.16,0.06-3.4
						c-0.14-2.49-0.97-4.84-1.1-4.79c-0.17,0.05,0.37,2.41,0.3,4.8c-0.08,1.19-0.11,2.39-0.29,3.27c-0.13,0.89-0.22,1.48-0.22,1.48
						s-0.1,0.58-0.26,1.46c-0.11,0.89-0.46,2.03-0.75,3.2c-0.68,2.3-1.78,4.44-1.64,4.54c0.11,0.08,1.49-1.98,2.39-4.29
						c0.4-1.16,0.83-2.32,1.01-3.23c0.22-0.9,0.36-1.5,0.36-1.5S348.85,258.98,348.93,258.05z M358.9,259.29
						c0.09,0.86,0.15,1.44,0.15,1.44s0.01,0.15,0.08,0.39c0.06,0.25,0.15,0.6,0.25,1.02c0.17,0.86,0.57,1.96,0.99,3.05
						c0.2,0.54,0.52,1.04,0.76,1.53c0.13,0.24,0.25,0.47,0.37,0.69c0.14,0.21,0.29,0.39,0.43,0.57c0.55,0.69,0.93,1.11,0.99,1.07
						c0.06-0.05-0.2-0.56-0.62-1.3c-0.1-0.19-0.23-0.37-0.33-0.59c-0.09-0.22-0.18-0.46-0.28-0.71c-0.18-0.5-0.44-0.99-0.59-1.53
						c-0.3-1.08-0.61-2.15-0.72-2.99c-0.07-0.41-0.14-0.75-0.18-0.99c-0.05-0.24-0.06-0.38-0.06-0.38s-0.09-0.55-0.23-1.38
						c-0.17-0.82-0.23-1.94-0.36-3.06c-0.15-2.25-0.04-4.51-0.2-4.53c-0.14-0.02-0.54,2.24-0.59,4.55
						C358.8,257.27,358.78,258.42,358.9,259.29z M364.98,260.76c0,0,0.53,2.41,1.44,4.7c0.96,2.28,2.32,4.33,2.43,4.25
						c0.15-0.09-0.95-2.24-1.69-4.52c-0.7-2.29-1.09-4.64-1.09-4.64s-0.11-0.59-0.27-1.46c-0.2-0.87-0.29-2.07-0.45-3.25
						c-0.22-2.38-0.24-4.8-0.4-4.81c-0.14,0-0.41,2.41-0.39,4.85C364.6,258.32,364.98,260.76,364.98,260.76z M344.58,426.63
						c-0.04-1.85-0.32-4.46-0.19-7.63c-0.08-6.31,0.69-14.71,0.99-23.14c0.09-4.21,0.25-8.44,0.28-12.39
						c0.02-3.95,0.03-7.64,0.05-10.8c0-6.32-0.01-10.54-0.01-10.54s-0.01-1.05-0.03-2.89c0-1.84,0-4.46-0.01-7.61
						c0-1.58-0.01-3.28-0.01-5.09c0.04-1.81,0.08-3.7,0.12-5.68c0.04-1.97,0.08-4,0.12-6.07c0.03-2.07,0.22-4.16,0.32-6.25
						c0.12-2.1,0.24-4.19,0.36-6.26c0.03-0.52,0.06-1.03,0.09-1.54c0.05-0.51,0.11-1.02,0.17-1.52c0.11-1.01,0.22-2,0.32-2.98
						c0.21-1.96,0.42-3.85,0.61-5.64c0.09-0.89,0.19-1.77,0.28-2.61c0.14-0.84,0.28-1.64,0.42-2.42c0.53-3.11,0.96-5.69,1.27-7.51
						c0.14-0.9,0.25-1.62,0.33-2.11c0.07-0.49,0.1-0.75,0.08-0.76c-0.02,0-0.08,0.25-0.19,0.73c-0.1,0.49-0.25,1.19-0.44,2.09
						c-0.36,1.8-0.87,4.39-1.49,7.48c-0.15,0.77-0.31,1.58-0.47,2.42c-0.11,0.84-0.22,1.71-0.33,2.61c-0.23,1.8-0.46,3.69-0.7,5.64
						c-0.12,0.98-0.25,1.98-0.37,2.98c-0.06,0.5-0.13,1.02-0.19,1.53c-0.04,0.51-0.08,1.03-0.11,1.54
						c-0.15,2.07-0.29,4.17-0.44,6.27c-0.13,2.1-0.34,4.2-0.4,6.27c-0.06,2.07-0.13,4.1-0.19,6.07c-0.06,1.97-0.12,3.88-0.17,5.68
						c-0.01,1.81-0.03,3.51-0.04,5.09c-0.02,3.16-0.04,5.78-0.06,7.62c0,1.84,0,2.89,0,2.89s0.04,4.22,0.1,10.54
						c0.02,3.16,0.03,6.84,0.05,10.79c0.01,3.95-0.1,8.15-0.14,12.37c-0.2,8.41-0.85,16.84-0.63,23.17c-0.07,3.17,0.29,5.8,0.4,7.64
						c0.08,0.92,0.14,1.64,0.19,2.13c0.05,0.49,0.09,0.75,0.1,0.75c0.02,0,0.02-0.26,0.01-0.76
						C344.64,428.27,344.62,427.55,344.58,426.63z M413.23,432.32c-0.1-0.49-0.25-1.19-0.44-2.09c-0.22-0.9-0.37-2.01-0.57-3.27
						c-0.23-1.26-0.38-2.7-0.55-4.27c-0.34-3.14-0.55-6.81-0.65-10.76c-0.04-1.97-0.09-4.01-0.14-6.08
						c-0.02-1.04-0.05-2.08-0.06-3.13c-0.03-1.05-0.14-2.11-0.2-3.16c-0.14-2.11-0.28-4.21-0.43-6.28
						c-0.14-2.08-0.26-4.12-0.52-6.08c-0.45-3.93-0.87-7.6-1.22-10.74c-0.9-6.26-1.5-10.44-1.5-10.44s-0.17-1.04-0.45-2.86
						c-0.31-1.82-0.74-4.4-1.27-7.51c-0.25-1.56-0.58-3.24-0.82-5.03c-0.25-1.78-0.5-3.67-0.77-5.61c-0.27-1.95-0.55-3.96-0.83-6.01
						c-0.21-2.05-0.43-4.15-0.65-6.23c-0.43-4.18-0.86-8.36-1.26-12.29c-0.43-3.91-0.71-7.58-1.21-10.7
						c-0.45-3.13-0.82-5.73-1.08-7.55c-0.14-0.91-0.25-1.63-0.33-2.12c-0.08-0.49-0.13-0.74-0.15-0.74c-0.02,0,0,0.27,0.04,0.76
						c0.05,0.49,0.12,1.21,0.22,2.12c0.21,1.83,0.51,4.44,0.87,7.56c0.43,3.12,0.65,6.8,1.02,10.72c0.35,3.92,0.72,8.11,1.09,12.29
						c0.19,2.1,0.39,4.19,0.58,6.25c0.26,2.06,0.52,4.09,0.77,6.04c0.25,1.96,0.49,3.85,0.72,5.65c0.23,1.8,0.54,3.47,0.78,5.04
						c0.5,3.11,0.91,5.7,1.21,7.52c0.27,1.82,0.42,2.86,0.42,2.86s0.64,4.16,1.59,10.41c0.39,3.13,0.84,6.79,1.32,10.7
						c0.28,1.96,0.42,3.99,0.58,6.05c0.16,2.07,0.33,4.16,0.5,6.26c0.07,1.05,0.19,2.1,0.23,3.14c0.04,1.05,0.07,2.09,0.11,3.13
						c0.07,2.07,0.15,4.11,0.22,6.09c0.16,3.95,0.44,7.64,0.84,10.78c0.21,1.58,0.39,3.01,0.66,4.27c0.25,1.27,0.42,2.37,0.68,3.26
						c0.24,0.89,0.42,1.59,0.55,2.07c0.13,0.48,0.21,0.73,0.23,0.72C413.37,433.06,413.33,432.8,413.23,432.32z"/>
				</g>
			</g>
			<path class="st18" d="M385.97,56.38c8.8-1.5,17.24-4.48,22.49-13.1c-0.45,1.47-1.19,3.05-2.34,4.75c0,0-1.61,11.92-2.81,17.08
				c0,0-3.62,0-6.43,3.57c-2.82,3.57-2.41,5.96-2.41,5.96l-6.03-1.19l1.81-14.7C390.25,58.75,388.28,58.16,385.97,56.38z"/>
			<path class="st0" d="M355.36,129.84c0.39-0.86,0.75-1.74,1.1-2.62c-0.33,1.47-0.45,3.07-0.26,4.82
				C356.19,132.03,355.82,131.2,355.36,129.84z"/>
			<g>
				<g>
					<g>
						<path class="st16" d="M342.31,270.73c0.82-14.76,1.5-26.96,1.5-26.96c8.19-9.07,57.91-12.69,58.01-2.07
							c0.06,5.9,1.74,16.24,3.05,26.09c-25.48,4.1-41.74-10.76-41.74-10.76C355.95,265.49,347.33,269.19,342.31,270.73z"/>
						<path class="st1" d="M421.59,128.45c0,0-21.7-13.7-47.01-13.7c-25.32,0-39.18,8.94-45.21,13.7
							c-6.03,4.77-3.61,49.45,2.41,64.35c4.62,11.4,7.23,28,7.84,35.15c0.6,7.15-1.51,33.07-1.51,33.07s14.17-1.79,25.02-13.7
							c0,0,17.48,14.89,44.61,9.53c0,0-4.22-28.3-3.62-50.35C404.71,184.46,420.99,140.37,421.59,128.45z"/>
						<path class="st14" d="M339.61,227.95c-0.37-4.46-1.54-12.59-3.47-20.84c9.45,5.66,21.15,7.46,32.42,5
							c20.05-4.38,35.1-24.87,38.15-44.2c2.44-15.43,2.69-28.33-0.02-43.74c-0.2-1.1-0.45-2.17-0.76-3.22
							c0.58,0.22,1.15,0.44,1.71,0.67c0.16,0.06,0.3,0.12,0.46,0.19c0.39,0.16,0.78,0.32,1.16,0.48c0.2,0.09,0.4,0.17,0.59,0.25
							c0.32,0.14,0.64,0.27,0.95,0.41c0.21,0.09,0.41,0.18,0.61,0.27c0.28,0.13,0.56,0.25,0.83,0.37c0.21,0.1,0.41,0.19,0.61,0.28
							c0.25,0.12,0.5,0.24,0.75,0.35c0.2,0.1,0.39,0.19,0.59,0.28c0.23,0.11,0.46,0.22,0.68,0.33c0.19,0.09,0.37,0.18,0.55,0.27
							c0.21,0.1,0.42,0.21,0.62,0.31c0.17,0.09,0.34,0.17,0.51,0.25c0.19,0.1,0.38,0.2,0.56,0.29c0.16,0.08,0.32,0.16,0.47,0.25
							c0.17,0.09,0.34,0.17,0.5,0.26c0.14,0.08,0.28,0.15,0.42,0.23c0.15,0.08,0.3,0.16,0.45,0.24c0.12,0.06,0.24,0.13,0.36,0.2
							c0.13,0.07,0.26,0.15,0.38,0.21c0.11,0.06,0.22,0.12,0.31,0.18c0.12,0.06,0.22,0.12,0.32,0.18c0.08,0.05,0.17,0.1,0.25,0.14
							c0.1,0.06,0.19,0.11,0.27,0.16c0.06,0.03,0.12,0.07,0.18,0.1c0.08,0.05,0.14,0.09,0.2,0.12c0.04,0.03,0.09,0.05,0.13,0.08
							c0.06,0.04,0.11,0.07,0.15,0.1c0.01,0,0.03,0.02,0.04,0.02c0.04,0.03,0.07,0.04,0.07,0.04c-0.6,11.92-16.88,56.01-17.48,78.05
							c-0.6,22.05,3.62,50.35,3.62,50.35c-0.99,0.2-1.96,0.36-2.92,0.5c-0.28,0.04-0.56,0.08-0.84,0.11
							c-0.7,0.09-1.4,0.18-2.09,0.25c-0.27,0.03-0.54,0.05-0.82,0.08c-0.77,0.06-1.54,0.12-2.29,0.15
							c-0.14,0.01-0.28,0.02-0.43,0.02c-0.94,0.04-1.87,0.05-2.79,0.05c0.11-0.99,0.17-2,0.17-3.02v-0.22
							c0-15.3-12.92-28.06-28.39-28.06c-15.47,0-28.39,12.76-28.39,28.06v0.22c0,1.97,0.22,3.9,0.63,5.77
							c-0.7,0.15-1.18,0.22-1.37,0.25c0,0-0.01,0-0.01,0c-0.06,0.01-0.09,0.01-0.09,0.01S340.22,235.1,339.61,227.95z"/>
					</g>
					<g>
						<g>
							<path class="st15" d="M331.78,192.5c0.04-0.01-0.04-0.5-0.2-1.36c-0.17-0.85-0.42-2.07-0.73-3.54
								c-0.34-1.45-0.62-3.17-0.95-5.01c-0.29-1.84-0.74-3.78-0.95-5.76c-0.48-3.95-1.07-7.88-1.19-10.86
								c-0.21-2.97-0.36-4.95-0.36-4.95s-0.04-0.49-0.12-1.36c-0.12-0.86-0.06-2.1-0.09-3.58c0-1.48-0.04-3.21-0.01-5.07
								c0.09-1.85,0.19-3.83,0.29-5.81c0.08-1.98,0.32-3.96,0.46-5.81c0.15-1.86,0.31-3.59,0.46-5.07c0.14-1.48,0.25-2.72,0.32-3.59
								c0.07-0.87,0.09-1.37,0.05-1.37c-0.04,0-0.14,0.49-0.28,1.34c-0.13,0.86-0.31,2.09-0.54,3.57c-0.22,1.48-0.45,3.2-0.65,5.06
								c-0.2,1.85-0.49,3.82-0.63,5.81c-0.14,1.99-0.29,3.98-0.43,5.84c-0.07,1.87-0.07,3.62-0.1,5.12c0,1.5-0.08,2.75,0.02,3.62
								c0.06,0.87,0.1,1.37,0.1,1.37s0.18,1.99,0.45,4.98c0.18,3,0.86,6.94,1.44,10.9c0.26,1.98,0.77,3.92,1.12,5.76
								c0.38,1.83,0.73,3.55,1.13,4.99c0.39,1.45,0.71,2.66,0.94,3.5C331.59,192.04,331.74,192.51,331.78,192.5z"/>
						</g>
						<g>
							<path class="st15" d="M363.17,247.32c0.31-0.02,0.09-12.25,0.09-12.25s-0.1-3.04-0.2-6.09c-0.11-3.05-0.27-6.11-0.42-6.11
								c-0.16,0-0.28,3.05-0.37,6.11c-0.04,1.53-0.08,3.06-0.1,4.2c-0.03,1.15-0.03,1.92-0.03,1.92S362.85,247.34,363.17,247.32z"/>
						</g>
					</g>
				</g>
				<g>
					<g>
						<path class="st0" d="M392.05,114.75c0,0-9.64,24.43-14.47,35.15c-4.82,10.72-6.03,34.56-7.84,39.92
							c-1.81,5.36-5.83,25.46-5.83,25.46s-11.05-14.73-15.87-36.18c-4.82-21.45,0-50.05,8.44-61.37
							C364.93,106.41,380.6,108.2,392.05,114.75z"/>
					</g>
					<path class="st0" d="M392.05,114.75c0,0-9.64,24.43-14.47,35.15c-4.82,10.72-6.03,34.56-7.84,39.92
						c-1.81,5.36-5.83,25.46-5.83,25.46s-11.05-14.73-15.87-36.18c-4.82-21.45,0-50.05,8.44-61.37
						C364.93,106.41,380.6,108.2,392.05,114.75z"/>
				</g>
				<g>
					<path class="st7" d="M374.57,124.28c0,0-3.02,7.45-7.23,9.83c0,0,1.21,16.39,1.81,28.9c0.6,12.51-5.63,55.51-5.63,55.51
						s-10.05-28.1-11.85-40.62c-1.81-12.51,9.04-44.38,9.04-44.38s-4.52-1.79-3.32-10.72C358.6,113.86,372.76,107.6,374.57,124.28z"
						/>
					<path class="st19" d="M361.23,171.22c0.8-11.11,3.87-22.6,0.94-33.62c-0.34-1.29-1.02-2.21-1.88-2.81
						c0.27-0.81,0.42-1.27,0.42-1.27s-2.62-1.05-3.33-5.49c1.43,0.94,2.93,1.53,4.77,1.69c1.46,0.13,3.28-0.3,4.5-1.13
						c2.03-1.37,3.13-3.27,3.31-5.7c0.12-1.65-0.54-3.48-1.5-4.81c-0.83-1.14-1.73-2.01-3.14-2.39c-1.38-0.37-2.81-0.16-4.05,0.53
						c-0.23,0.13-0.45,0.26-0.65,0.41c4.63-4.47,12.62-4.6,13.95,7.65c0,0-3.02,7.45-7.23,9.83c0,0,1.21,16.39,1.81,28.9
						c0.6,12.51-5.63,55.51-5.63,55.51s-1.63-4.56-3.69-10.81C360.63,195.56,360.35,183.37,361.23,171.22z"/>
				</g>
				<g>
					<path class="st14" d="M343.68,135.82c11.25-27.16,17.58-22.69,17.58-22.69s-10.85,23.55-8.84,53.83
						c1.67,25.12,8.59,47.91,10.9,54.95c1.03-12.12,3.76-41.45,7.46-58.75c4.74-22.2,20.78-41.91,18.41-53.02
						c0,0,10.84,5.58,10.45,16.35c-0.39,10.76-4.35,33.31-8.69,38.01c-4.35,4.71-13.44,2.36-13.44,2.36s8.3,13.45,5.14,22.54
						c-2.18,6.27-5.62,12.16-8.82,17.96c-1.93,3.5-3.9,6.97-5.82,10.47c-1.75,3.19-2.59,6.72-5.05,9.52
						c-1.64-3.01-5.14-5.61-7.22-8.54c-2.43-3.43-4.49-7.11-6.31-10.9c-3.27-6.8-5.84-14.01-7.55-21.35
						c-3.26-13.94,3.31-22.27,3.31-22.27C339.96,163.02,335.78,154.88,343.68,135.82z"/>
					<path class="st15" d="M389.19,110.13c0,0,10.84,5.38,10.45,15.74c-0.39,10.37-4.35,32.06-8.69,36.6
						c-4.35,4.54-13.44,2.27-13.44,2.27s8.3,12.95,5.14,21.7c-3.16,8.74-13.44,24.62-19.77,36.6c0,0,3.16-40.48,7.91-61.86
						C375.52,139.8,391.56,120.82,389.19,110.13z"/>
					<path class="st16" d="M374.32,171.8c-0.44-3.9-1.64-7.59-3.52-10.73c0.05-0.21,0.1-0.41,0.14-0.62
						c4.52-0.65,8.04-2.82,11.77-5.77c8.88-6.99,10.9-17.73,12.09-28.17c0.54-4.77-2.17-10.25-5.4-13.78
						c0.02-0.91-0.04-1.78-0.23-2.61c0,0,10.84,5.38,10.45,15.74c-0.39,10.37-4.35,32.06-8.69,36.6
						c-4.35,4.54-13.44,2.27-13.44,2.27s8.3,12.95,5.14,21.7c-3.16,8.74-13.44,24.62-19.77,36.6c0,0,0.26-3.31,0.74-8.53
						C371.03,201.54,376.01,186.83,374.32,171.8z"/>
					<path class="st15" d="M364.08,219.9c0,0-9.64-25.91-11.66-55.06c-2.01-29.15,8.84-51.82,8.84-51.82s-6.33-4.3-17.58,21.84
						c-7.9,18.36-3.72,26.19,1.51,27.41c0,0-6.58,8.02-3.31,21.45c2.72,11.21,10.15,30.51,21.8,39.42L364.08,219.9z"/>
					<path class="st16" d="M350.84,184.77c-0.94-4.45-2.82-16.14-8.01-18.23c1.13-2.77,2.35-4.27,2.35-4.27
						c-1.78-0.41-3.42-1.59-4.53-3.68c4.03-2.95,6.27-9.01,7.3-13.9c0.99-4.66,1.59-9.2,3.67-13.57c2.88-6.07,6.23-11.89,8.27-18.31
						c0.01-0.01,0.01-0.03,0.01-0.05c0.89-0.05,1.35,0.26,1.35,0.26s-10.85,22.67-8.84,51.82c2.01,29.15,11.66,55.06,11.66,55.06
						l-0.4,3.24c-3.96-3.03-7.43-7.27-10.39-11.98C354.86,202.58,352.52,192.67,350.84,184.77z"/>
				</g>
				<g>
					<path class="st0" d="M386.83,102.84c0,0,9.74,7.55,1.31,17.87c0,0-4.12,7.74-15.37,12.51c0,0,2.81-11.32-6.03-18.07
						c0,0-11.75,5.36-10.55,16.88c0,0-3.52-7.75-2.31-15.29C355.09,109.19,369.55,96.87,386.83,102.84z"/>
					<path class="st0" d="M359.07,116.57c0.01-0.07,0.02-0.15,0.02-0.21c0.15-2.2-0.16-4.67-1.19-6.71
						c5.66-6,16.57-11.08,28.93-6.82c0,0,5.73,4.45,4.58,11.19c-0.85-0.98-2.11-1.64-3.78-1.69c-6.25-0.17-12.54-0.04-15.5,6.65
						c-0.27,0.62-0.5,1.23-0.72,1.85c-0.98-2.02-2.46-4-4.68-5.69c0,0-4.83,2.21-7.98,6.83C359.2,120.27,359.3,118.41,359.07,116.57
						z"/>
					<g>
						<path class="st20" d="M367.88,113.31c-3.73-0.38-7.23-1.7-7.17-1.83c0.05-0.15,3.59,0.88,7.24,1.04
							c1.82,0.13,3.63,0.03,4.98-0.07c0.68-0.07,1.23-0.16,1.62-0.21c0.4-0.04,0.61-0.1,0.61-0.1s0.22-0.04,0.61-0.1
							c0.38-0.07,0.95-0.13,1.59-0.32c1.32-0.27,3.01-0.88,4.62-1.67c1.59-0.83,3.01-1.94,3.97-2.9c0.94-0.97,1.5-1.69,1.58-1.64
							c0.05,0.03-0.39,0.84-1.25,1.93c-0.88,1.08-2.28,2.33-3.9,3.3c-1.63,0.92-3.38,1.64-4.75,1.98c-0.67,0.22-1.25,0.3-1.65,0.39
							c-0.4,0.08-0.63,0.13-0.63,0.13s-0.23,0.05-0.64,0.08c-0.41,0.04-0.99,0.11-1.69,0.15
							C371.6,113.53,369.73,113.55,367.88,113.31z"/>
						<path class="st20" d="M357.76,122.61c0.19-0.45,0.41-0.8,0.54-1.06c0.14-0.25,0.21-0.39,0.21-0.39s0.35-0.55,0.97-1.33
							c0.61-0.78,1.55-1.71,2.62-2.48c1.09-0.76,2.3-1.29,3.24-1.56c0.47-0.13,0.87-0.2,1.15-0.24c-0.13-0.09-0.26-0.19-0.38-0.25
							c-0.85-0.53-1.51-0.74-1.48-0.84c0.01-0.04,0.18-0.02,0.48,0.05c0.29,0.08,0.74,0.15,1.2,0.4c1,0.39,2.11,1.31,3.06,2.35
							c0.96,1.04,1.63,2.29,2.13,3.21c0.23,0.47,0.4,0.88,0.52,1.15c0.13,0.28,0.19,0.44,0.19,0.44s0.91,2.65,1.09,5.41
							c0.09,1.38,0.08,2.76-0.1,3.78c-0.14,1.02-0.38,1.68-0.44,1.66c-0.1-0.02,0-0.69,0-1.7c0.04-1-0.07-2.34-0.25-3.65
							c-0.37-2.66-1.36-5.12-1.36-5.13c0,0-0.04-0.16-0.15-0.43c-0.11-0.27-0.26-0.65-0.44-1.12c-0.42-0.89-0.98-2.11-1.81-3.14
							c-0.63-0.8-1.34-1.54-2.04-2.07c-0.25,0.11-0.67,0.28-1.22,0.51c-0.86,0.39-1.95,0.99-2.9,1.78c-0.93,0.8-1.75,1.72-2.28,2.47
							c-0.53,0.75-0.83,1.28-0.83,1.28s-0.08,0.13-0.22,0.36c-0.13,0.24-0.36,0.55-0.56,0.97c-0.45,0.81-0.95,1.95-1.38,3.12
							c-0.85,2.36-1.27,4.86-1.43,4.84c-0.15-0.01-0.01-2.57,0.67-5.07C356.9,124.72,357.34,123.5,357.76,122.61z"/>
						<path class="st20" d="M353.63,119.78c0.05-1.18,0.17-2.37,0.32-3.25c0.15-0.89,0.29-1.47,0.29-1.47s0.17-0.58,0.51-1.42
							c0.32-0.84,0.89-1.92,1.58-2.91c0.7-0.99,1.58-1.83,2.29-2.37c0.72-0.53,1.25-0.81,1.29-0.75c0.05,0.07-0.39,0.47-0.99,1.08
							c-0.6,0.63-1.34,1.51-1.91,2.48c-0.56,0.99-1.02,2.02-1.27,2.83c-0.27,0.8-0.39,1.35-0.39,1.35s-0.16,0.54-0.36,1.38
							c-0.2,0.83-0.39,1.97-0.54,3.11c-0.28,2.3-0.39,4.64-0.55,4.64C353.73,124.48,353.55,122.15,353.63,119.78z"/>
						<path class="st20" d="M378.38,129.86c1.3-1.09,3-2.59,4.58-4.19c1.59-1.6,3.05-3.31,4.02-4.67c0.99-1.35,1.52-2.32,1.52-2.32
							s0.62-0.92,1.3-2.42c0.68-1.48,1.37-3.62,1.2-5.79c-0.07-1.08-0.33-2.14-0.73-3.09c-0.42-0.93-0.92-1.77-1.44-2.42
							c-1.02-1.33-1.89-2.06-1.82-2.14c0.02-0.03,0.26,0.13,0.65,0.44c0.41,0.3,0.93,0.79,1.51,1.43c0.59,0.64,1.16,1.48,1.67,2.44
							c0.48,0.98,0.82,2.11,0.95,3.28c0.28,2.35-0.38,4.67-1.04,6.26c-0.68,1.6-1.29,2.59-1.29,2.59s-0.59,1-1.66,2.36
							c-1.05,1.37-2.61,3.06-4.3,4.62c-1.68,1.56-3.48,2.97-4.87,3.96c-1.4,1-2.37,1.58-2.42,1.53
							C376.18,131.66,377.07,130.96,378.38,129.86z"/>
					</g>
				</g>
			</g>
			<g>
				<path class="st15" d="M469.56,131.41c0,0,13-1.54,22.6,13.45C492.16,144.86,473.95,149.7,469.56,131.41z"/>
				<g>
					<path class="st4" d="M471.06,132.89c-0.46-1.99-0.06-4.36,0.53-6.27c0.67-2.13,1.83-4.09,3.34-5.73
						c1.83-1.99,3.86-3.5,4.38-6.36c0.21-1.14,0.11-2.32,0.29-3.46c0.31-1.88,0.54-4.91,2.02-6.42c2.18-2.22,4.42,0.96,5.04,3.05
						c0.61,2.06,0.41,5.09-0.03,7.12c-0.09,0.41-0.32,0.86-0.45,1.27c0.59-1.76,2.07-2.82,3.14-4.26c1.33-1.8,2.59-3.71,3.48-5.76
						c0.8-1.83,1.36-3.5,2.5-5.19c3.26-4.85,13.04-7.15,14.02,0.44c0.7,5.42-1.78,12.36-5.34,16.46c0,0,5.49-3.29,7.06-0.97
						c1.57,2.32-4.12,8.91-11.56,13.17c-7.45,4.26-13.85,9.78-14.89,14.34C484.58,144.32,473.21,142.19,471.06,132.89z"/>
					<path class="st13" d="M507.9,116.15c-8.46,11.37-21.09,23.53-33.41,12.6c-1.03-0.92-1.88-1.92-2.58-2.98
						c-0.11,0.28-0.23,0.56-0.32,0.85c-0.6,1.91-0.99,4.28-0.53,6.27c2.16,9.3,13.52,11.43,13.52,11.43
						c1.05-4.56,7.45-10.07,14.89-14.34c7.45-4.26,13.13-10.85,11.56-13.17C510.42,115.88,509.17,115.86,507.9,116.15z"/>
					<g>
						<g>
							<path class="st6" d="M474.39,120.88c-0.34-0.29,3.77-2.89,4.83-7.21c0.16-1.06,0.51-2.11,0.52-3.1
								c0.04-1.01,0-2.01,0.11-2.91c0.1-1.81,1.14-3.03,1.13-2.95c0.02,0.01,0.17-0.26,0.68-0.62c0.42-0.36,1.51-0.85,2.6-0.39
								c1.04,0.43,1.75,1.34,2.3,2.31c0.54,0.97,0.96,2.15,1.04,3.32c0.37,2.32-0.32,4.72-1.29,6.15c-0.96,1.46-1.89,2.15-1.93,2.1
								c-0.1-0.09,0.68-0.92,1.43-2.38c0.76-1.45,1.21-3.61,0.76-5.73c-0.28-2.03-1.64-4.1-2.8-4.52c-1.06-0.34-1.69,0.81-1.68,0.71
								c0,0-0.68,0.58-0.89,2.17c-0.13,0.77-0.14,1.73-0.24,2.81c-0.07,1.12-0.5,2.21-0.74,3.34c-0.52,1.04-0.86,2.14-1.54,3.03
								c-0.58,0.94-1.36,1.63-2.01,2.18C475.31,120.24,474.48,120.95,474.39,120.88z"/>
						</g>
						<g>
							<path class="st6" d="M502.22,128.43c-0.1-0.11,1.87-1.9,4.02-4.37c1.06-1.23,2.19-2.66,2.91-4.14
								c0.38-0.73,0.57-1.49,0.51-2.1c0.01-0.64-0.5-0.94-0.89-1.25l-0.02-0.02l-0.02,0c-0.63-0.26-1.94,0.17-2.74,0.54
								c-0.86,0.38-1.62,0.78-2.2,1.09c-1.14,0.6-1.71,0.91-1.71,0.91s-0.33,0.16-0.88,0.5c-0.56,0.33-1.35,0.81-2.31,1.38
								c-1.87,1.24-4.72,2.53-7.49,3.56c-2.8,1.03-5.49,2.22-7.21,3.6c-0.82,0.72-1.5,1.33-1.85,1.87c-0.4,0.5-0.66,0.78-0.7,0.76
								c-0.05-0.03,0.12-0.35,0.46-0.93c0.28-0.61,0.92-1.31,1.72-2.13c1.68-1.58,4.44-2.97,7.19-4.12
								c2.77-1.18,5.34-2.45,7.17-3.74c0.95-0.61,1.73-1.11,2.29-1.47c0.55-0.36,0.89-0.54,0.89-0.54s0.61-0.31,1.82-0.92
								c0.6-0.29,1.32-0.65,2.29-1.05c0.48-0.19,1.02-0.38,1.64-0.54c0.64-0.08,1.36-0.33,2.33,0.19c-0.01-0.01-0.02-0.01-0.04-0.02
								c0.31,0.27,0.71,0.48,0.96,0.88c0.12,0.21,0.23,0.42,0.36,0.64c0.06,0.24,0.08,0.48,0.12,0.73c0.03,0.96-0.3,1.88-0.74,2.66
								c-0.88,1.6-2.12,2.98-3.29,4.17c-1.17,1.18-2.3,2.17-3.14,2.85C502.81,128.1,502.26,128.48,502.22,128.43z"/>
						</g>
						<g>
							<path class="st6" d="M496.92,120.63c-0.2,0.03-0.64-1.29-1.75-1.97c-1.06-0.71-2.38-1.04-2.38-1.04
								c0.12-0.06-5.33-1.83-5.13-2.37c0.09-0.22,5.59,0.88,5.64,1c0,0,1.42,0.52,2.55,1.62
								C497.06,119.01,497.13,120.65,496.92,120.63z"/>
						</g>
						<g>
							<path class="st6" d="M508.39,100.15c0.01,0.14-0.74,0.19-1.7,0.54c-1.01,0.29-2.09,1.19-2.89,2.27
								c-0.81,1.09-1.39,2.36-1.77,3.36c-0.39,0.99-0.65,1.66-0.65,1.66s-1.13,2.64-2.55,5.21c-0.75,1.27-1.53,2.51-2.34,3.28
								c-0.74,0.81-1.26,1.32-1.33,1.25c-0.08-0.07,0.29-0.7,0.87-1.6c0.65-0.85,1.26-2.13,1.87-3.41c1.14-2.58,2.12-5.3,2.12-5.3
								s0.31-0.66,0.76-1.64c0.46-0.99,1.18-2.33,2.2-3.46c1.01-1.13,2.37-2.03,3.54-2.17C507.64,99.94,508.4,100.09,508.39,100.15z
								"/>
						</g>
						<g>
							<path class="st6" d="M506.18,96.08c0.09,0.25-3.4,0.64-5.48,3.05c-1.06,1.12-1.78,2.53-2.2,3.63
								c-0.45,1.07-0.68,1.87-0.68,1.87c0,0-1.13,3.04-2.52,6.04c-0.75,1.48-1.51,2.94-2.33,3.9c-0.75,0.99-1.27,1.63-1.35,1.56
								c-0.23-0.17,1.64-2.83,2.72-5.87c1.1-3.01,2.1-6.14,2.1-6.14s0.25-0.75,0.82-1.91c0.52-1.14,1.41-2.65,2.71-3.81
								c1.27-1.17,2.88-1.93,4.13-2.16C505.33,95.98,506.18,96.01,506.18,96.08z"/>
						</g>
					</g>
				</g>
				<g>
					<g>
						<g>
							<g>
								<g>
									<g>
										<path class="st1" d="M470.22,130.79c-4.47,15.91-13.21,42.47-13.21,42.47l-23.27-28.34c-3.9-4.75-8.36-12.54-13.01-16.58
											c-5.92-5.13-10.83,3.46-12.92,9.27c-1.02,2.84-1.84,6.24-2.2,9.75c-0.58,5.56,0.01,11.37,2.79,15.62
											c5.3,8.09,13.45,15.33,20.33,22.09c6.38,6.26,26.17,28.22,37.18,21.24c15-9.5,24.88-53.52,26.57-61.53
											C483.95,143.45,475.9,137.97,470.22,130.79z"/>
									</g>
									<path class="st14" d="M492.25,144.72c-1.85-0.3-3.67-0.81-5.45-1.48c-0.83,6.37-2.8,12.58-6.01,18.22
										c-4.27,7.52-12.72,12.57-21.54,11.93c-7.11-0.52-14.86,0.99-21.68-1.66c-4.14-1.6-8.16-5.81-11.27-8.85
										c-6.23-6.08-9.84-17.57-5.65-25.72c1.04-2.03,2.46-2.33,3.64-3.92c0.17-0.23,0.3-0.41,0.44-0.59
										c-1.31-1.64-2.64-3.15-3.99-4.32c-5.92-5.13-10.83,3.46-12.92,9.27c-1.02,2.84-1.84,6.24-2.2,9.75
										c-0.58,5.56,0.01,11.37,2.79,15.62c0.32,0.49,0.68,0.97,1.03,1.46c17.61,20.14,45.54,48.81,56.48,41.87
										c0.41-0.25,0.81-0.56,1.21-0.87C478.45,196.4,487.8,163.14,492.25,144.72z"/>
									<g>
										<g>
											<path class="st15" d="M455.42,184.17c-0.04-3.25,0.44-6.15,0.91-8.2c0.51-2.04,0.92-3.28,0.92-3.28s-0.18,1.28-0.47,3.36
												c-0.25,2.08-0.48,4.94-0.45,8.1c0.08,3.15,0.47,5.98,0.88,8.02c0.48,2.03,0.78,3.29,0.78,3.29s-0.54-1.18-1.23-3.17
												C456.15,190.29,455.5,187.41,455.42,184.17z"/>
										</g>
										<g>
											<path class="st15" d="M456.29,182.15c-0.28-2.07-0.17-3.92,0.06-5.24c0.22-1.32,0.5-2.11,0.5-2.11c0,0,0,3.31,0.59,7.32
												c0.36,2,0.73,3.8,1.32,5.08c0.19,0.66,0.6,1.14,0.77,1.49c0.2,0.35,0.32,0.55,0.32,0.55s-0.17-0.18-0.47-0.49
												c-0.27-0.33-0.82-0.78-1.15-1.43C457.34,186.07,456.66,184.2,456.29,182.15z"/>
										</g>
									</g>
								</g>
							</g>
						</g>
					</g>
				</g>
			</g>
			<g>
				<path class="st18" d="M387.55,57.42c8.77-1.18,17.25-3.85,22.75-12.21c-0.49,1.45-1.29,2.99-2.48,4.63
					c0,0-2.01,11.76-3.39,16.84c0,0-3.59-0.12-6.5,3.32c-2.92,3.44-2.6,5.82-2.6,5.82l-5.93-1.39l2.31-14.51
					C391.71,59.92,389.79,59.27,387.55,57.42z"/>
				<g>
					<g>
						<g>
							<g>
								<g>
									<path class="st4" d="M337.49,59.24c0,0-7.5-5.98-9.41,0.07c-1.91,6.05,0.03,21.73,6.12,18.32
										C340.29,74.23,337.49,59.24,337.49,59.24z"/>
									<path class="st13" d="M337.49,59.24c0,0-1.38-1.1-3.11-1.88c-1.23,0.13-2.32,0.85-2.89,2.68
										c-1.43,4.55-0.69,14.54,2.35,17.77c0.12-0.05,0.23-0.1,0.36-0.17C340.29,74.23,337.49,59.24,337.49,59.24z"/>
								</g>
								<g>
									<g>
										<path class="st6" d="M332.92,75.8c-0.09-0.04,0.74-2.05,0.92-4.2c0.25-2.15-0.07-4.26-0.07-4.26s-0.06-0.53-0.2-1.31
											c-0.16-0.78-0.43-1.81-0.89-2.77c-0.47-0.95-1.07-1.85-1.67-2.4c-0.57-0.57-1.02-0.88-0.99-0.94
											c0.01-0.03,0.53,0.2,1.18,0.73c0.67,0.51,1.37,1.4,1.93,2.37c0.54,0.98,0.88,2.05,1.09,2.86
											c0.19,0.81,0.27,1.37,0.27,1.37s0.25,2.23-0.14,4.41C334.03,73.86,333.01,75.85,332.92,75.8z"/>
									</g>
									<g>
										<path class="st6" d="M330.38,72.91c-0.09,0-0.13-0.91,0-1.83c0.06-0.45,0.18-0.91,0.27-1.24c0.12-0.33,0.2-0.55,0.2-0.55
											s0.08-0.22,0.3-0.52c0.1-0.15,0.21-0.32,0.33-0.5c0.16-0.16,0.33-0.33,0.49-0.51c0.72-0.67,1.67-0.89,1.68-0.81
											c0.04,0.11-0.78,0.49-1.3,1.16c-0.13,0.17-0.25,0.34-0.37,0.5c-0.09,0.18-0.18,0.34-0.25,0.48
											c-0.16,0.28-0.22,0.49-0.22,0.49s-0.09,0.19-0.23,0.48c-0.12,0.3-0.28,0.71-0.4,1.13
											C330.63,72.03,330.49,72.92,330.38,72.91z"/>
									</g>
								</g>
							</g>
							<g>
								<path class="st4" d="M366.7,23.9c0,0-18.94,2.75-24.57,14.49c-5.62,11.74-5.28,31.01-5.28,31.01s-2,10.81-0.43,19.07
									c0.42,4.81,2.33,7.75,5.05,9.58c4.96,3.34,12.61,3.02,18.76,3.7c3.77,1.92,0.16,5.56,1.55,9.16
									c8.87,4.57,16.69,1.65,22.6-2.33c3.82-2.57,2.09-13.47,9.01-19.78c0.29-0.26,0.44-0.57,0.6-0.78c0,0,10.73,4.77,16.84-3.61
									c6.11-8.37,3.67-21.61-9.15-17.02C401.67,67.39,408.15,26,366.7,23.9z"/>
							</g>
							<g>
								<g class="st5">
									<path class="st6" d="M400,75.86c-2.34,3.52-2,7.81,0.74,9.58c2.74,1.78,5.03,0.04,7.36-3.48c2.33-3.52,3.82-7.48,1.08-9.26
										C406.44,70.93,402.33,72.34,400,75.86z"/>
								</g>
								<g>
									<path class="st6" d="M399.3,76.88c0.46-0.85,0.86-1.36,0.86-1.36s0.4-0.51,1.1-1.16c0.71-0.65,1.74-1.43,2.93-1.94
										c1.17-0.53,2.48-0.75,3.43-0.65c0.96,0.09,1.54,0.39,1.52,0.44c-0.03,0.08-0.63-0.08-1.52-0.03
										c-0.9,0.03-2.06,0.34-3.1,0.91c-1.05,0.55-1.95,1.33-2.56,1.96c-0.61,0.64-0.95,1.11-0.95,1.11s-0.39,0.45-0.85,1.19
										c-0.07,0.1-0.13,0.22-0.19,0.34l0,0c0.44-0.2,1.09-0.4,1.78-0.34c0.68,0.06,1.34,0.3,1.77,0.59
										c0.23,0.12,0.38,0.28,0.51,0.37c0.11,0.1,0.18,0.15,0.18,0.15s0.05,0.07,0.14,0.19c0.09,0.13,0.24,0.28,0.34,0.52
										c0.28,0.44,0.46,1.13,0.46,1.81c0.02,0.69-0.28,1.31-0.52,1.72c-0.29,0.39-0.52,0.6-0.58,0.56
										c-0.06-0.05,0.05-0.34,0.2-0.74c0.1-0.42,0.25-0.97,0.15-1.51c-0.09-0.52-0.29-1.03-0.55-1.33
										c-0.23-0.32-0.44-0.49-0.43-0.49c0,0-0.05-0.05-0.12-0.13c-0.09-0.07-0.18-0.22-0.35-0.32c-0.3-0.27-0.78-0.5-1.31-0.65
										c-0.53-0.15-1.1-0.09-1.53-0.02c-0.14,0.04-0.28,0.07-0.39,0.1c-0.31,0.63-0.59,1.37-0.73,2.15
										c-0.09,0.57-0.12,1.16-0.08,1.7c0.07,0.54,0.17,1.05,0.34,1.47c0.3,0.83,0.67,1.34,0.6,1.39
										c-0.04,0.04-0.53-0.38-0.99-1.23c-0.24-0.42-0.41-0.95-0.54-1.54c-0.12-0.59-0.14-1.24-0.08-1.89
										C398.35,78.95,398.83,77.72,399.3,76.88z"/>
								</g>
							</g>
							<g>
								<g class="st5">
									<path class="st6" d="M350.98,73.76c0,0,0.68,2.79,4.02,2.47c3.35-0.32,3-3.24,3-3.24s2.83,2.62,2.67,3.86
										C360.51,78.09,348.07,81.39,350.98,73.76z"/>
								</g>
								<g>
									<g>
										<path class="st6" d="M360.69,76.55c-0.08,0.03-0.27-0.37-0.66-0.89c-0.38-0.52-0.99-1.14-1.69-1.62
											c-0.7-0.49-1.48-0.84-2.08-1.03c-0.6-0.19-1-0.23-1-0.23s-0.1-0.03-0.27-0.06c-0.17-0.03-0.42-0.07-0.72-0.08
											c-0.59-0.01-1.4,0.11-1.98,0.62c-0.6,0.49-0.91,1.29-1.05,1.91c-0.14,0.62-0.17,1.07-0.26,1.07
											c-0.06,0-0.18-0.44-0.17-1.13c0.01-0.68,0.22-1.67,0.93-2.42c0.34-0.37,0.79-0.65,1.24-0.82
											c0.45-0.16,0.88-0.23,1.25-0.26c0.37-0.02,0.68,0,0.9,0.02c0.21,0.02,0.34,0.04,0.34,0.04s0.49,0.09,1.15,0.36
											c0.66,0.27,1.5,0.74,2.2,1.37c0.72,0.62,1.28,1.38,1.57,2.01C360.7,76.07,360.75,76.53,360.69,76.55z"/>
									</g>
								</g>
							</g>
						</g>
					</g>
					<g>
						<path class="st13" d="M340.97,41.12c0.34-0.91,0.72-1.82,1.16-2.74c5.63-11.74,24.57-14.49,24.57-14.49
							c41.45,2.1,34.96,43.49,34.96,43.49c0.25-0.09,0.5-0.17,0.74-0.25c-0.15,0.66-0.31,1.27-0.45,1.8c0,0-3.59-0.12-6.5,3.32
							c-2.91,3.44-0.13,3.54-0.13,3.54l-7.43-1.25l1.34-12.37c0,0-9.85-3.3-10.79-16.34c0,0-12.31,1.34-27.39-3.52
							C351.06,42.34,345.85,42.65,340.97,41.12z"/>
						<path class="st21" d="M407.82,49.83c0,0-2.01,11.76-3.39,16.84c0,0-3.59-0.12-6.5,3.32c-2.92,3.44-3.73,7.58-3.73,7.58
							l-5.76-0.74l1.98-16.84c0,0-8.55-3.37-9.48-16.41c0,0-12.31,1.34-27.39-3.52c0,0-6.2,0.38-11.41-1.68c0,0-4,8.63-3.81,14.55
							c0.19,5.92-0.52,10.08-1.29,13.75l-2.72-2.07l1.29-8.13c0,0-6.26-9.09,1.24-17.99c0,0-14.91-7.02-0.77-23.08
							c0,0,8.56,5.82,19.43,3.04c10.87-2.78,44.04-4.78,47.43,11.9C402.93,30.35,417.05,37.14,407.82,49.83z"/>
						<path class="st18" d="M335.91,15.59c9.88,13.2,28.56,20.72,44.61,14.74c0.72-0.27,1.42-0.58,2.09-0.92
							c5.01-1.43,7.93-5.65,8.66-10.27c5.95,2.06,10.52,5.56,11.67,11.21c0,0,1.49,0.72,3.19,2.13
							c-7.56,6.42-15.57,11.07-24.85,13.76c-0.16-0.84-0.28-1.72-0.34-2.66c0,0-12.31,1.34-27.39-3.52c0,0-6.2,0.38-11.41-1.68
							c0,0-4,8.63-3.81,14.55c0.19,5.92-0.52,10.08-1.29,13.75l-2.72-2.07l1.29-8.13c0,0-6.26-9.09,1.24-17.99
							C336.84,38.49,322.06,31.52,335.91,15.59z"/>
						<g>
							<path class="st18" d="M394.59,51.74c7.61,1.31,11.65-0.78,13.53-2.35c-0.1,0.15-0.19,0.3-0.3,0.44c0,0-2.01,11.76-3.39,16.84
								c0,0-3.59-0.12-6.5,3.32c-2.92,3.44-3.73,7.58-3.73,7.58l-5.76-0.74l0.72-6.07l2.56-10.84c0,0-9.85-3.3-10.79-16.34
								C380.93,43.58,383.1,49.76,394.59,51.74z"/>
							<path class="st18" d="M338.32,52.93c0.19,5.92-0.52,10.08-1.29,13.75l-2.72-2.07l1.29-8.13c0,0-6.23-9.05,1.19-17.94
								c3.79,0.78,5.33-0.16,5.33-0.16S338.13,47.01,338.32,52.93z"/>
						</g>
						<g>
							<path class="st22" d="M344.23,32.88c-1.19-1.19-2.28-2.48-3.19-3.77c-0.87-1.31-1.61-2.59-2.09-3.75
								c-0.27-0.57-0.46-1.11-0.61-1.6c-0.17-0.48-0.3-0.9-0.38-1.26c-0.17-0.71-0.25-1.12-0.21-1.12c0.1-0.03,0.51,1.59,1.61,3.8
								c0.53,1.11,1.31,2.32,2.2,3.57c0.93,1.23,2.04,2.44,3.23,3.57c2.42,2.23,5.21,4.02,7.41,5.15c2.19,1.15,3.74,1.74,3.74,1.74
								s1.5,0.68,3.84,1.48c2.34,0.79,5.54,1.68,8.82,2.18c3.27,0.55,6.59,0.72,9.08,0.66c2.49-0.06,4.14-0.31,4.15-0.22
								c0.01,0.04-0.4,0.13-1.12,0.27c-0.72,0.13-1.76,0.28-3.02,0.37c-2.51,0.19-5.89,0.14-9.22-0.31
								c-3.34-0.41-6.62-1.23-9.03-1.99c-2.41-0.77-3.96-1.43-3.96-1.43s-1.57-0.64-3.79-1.87
								C349.48,37.15,346.65,35.24,344.23,32.88z"/>
							<path class="st22" d="M341.99,37.34c-0.34-0.21-0.53-0.33-0.53-0.33s-0.18-0.14-0.48-0.39c-0.29-0.27-0.77-0.58-1.23-1.07
								c-1-0.91-2.12-2.33-3.05-3.85c-0.93-1.52-1.54-3.19-1.94-4.45c-0.35-1.27-0.5-2.13-0.43-2.15c0.08-0.02,0.37,0.8,0.85,2
								c0.51,1.19,1.23,2.76,2.2,4.18c0.97,1.4,2.1,2.69,3.08,3.51c0.45,0.45,0.91,0.73,1.2,0.96c0.29,0.23,0.46,0.35,0.46,0.35
								s0.18,0.12,0.48,0.33c0.31,0.2,0.73,0.54,1.3,0.83c1.08,0.69,2.67,1.35,4.3,1.9c3.29,1.09,6.82,1.26,6.81,1.43
								c0,0.07-0.88,0.11-2.21,0.06c-1.32-0.09-3.1-0.27-4.82-0.74c-1.72-0.47-3.42-1.09-4.58-1.76
								C342.78,37.88,342.32,37.55,341.99,37.34z"/>
							<path class="st22" d="M330.82,22.91c0.18,0,0.02,3,0.64,5.86c0.31,1.42,0.76,2.8,1.28,3.74c0.22,0.49,0.48,0.85,0.65,1.11
								c0.17,0.26,0.26,0.41,0.26,0.41s0.11,0.14,0.29,0.38c0.2,0.24,0.43,0.62,0.82,0.98c0.71,0.8,1.9,1.63,3.22,2.22
								c1.31,0.63,2.77,0.89,3.86,1.1c1.1,0.13,1.85,0.23,1.85,0.31c0,0.07-0.75,0.12-1.89,0.12c-1.13-0.09-2.68-0.23-4.12-0.81
								c-1.45-0.53-2.82-1.37-3.64-2.22c-0.45-0.38-0.73-0.78-0.96-1.04c-0.22-0.26-0.34-0.42-0.34-0.42s-0.1-0.17-0.27-0.47
								c-0.17-0.3-0.45-0.71-0.65-1.25c-0.52-1.05-0.91-2.55-1.13-4.05C330.23,25.88,330.69,22.89,330.82,22.91z"/>
							<path class="st22" d="M401.61,27.98c-0.25-0.8-0.73-1.67-1.3-2.52c-0.59-0.86-1.38-1.65-2.25-2.35
								c-1.75-1.4-3.85-2.29-5.43-2.85c-1.61-0.55-2.71-0.81-2.71-0.81s-1.09-0.32-2.77-0.67c-1.68-0.36-3.94-0.72-6.23-0.97
								c-2.29-0.26-4.6-0.42-6.32-0.55c-1.73-0.12-2.89-0.24-2.88-0.31c0-0.08,1.16-0.11,2.9-0.12c1.74,0,4.06,0.04,6.37,0.2
								c2.32,0.15,4.63,0.44,6.36,0.75c1.73,0.3,2.86,0.61,2.86,0.61s1.13,0.3,2.78,0.92c1.63,0.64,3.8,1.65,5.58,3.21
								c0.89,0.78,1.69,1.67,2.26,2.61c0.57,0.95,1,1.89,1.2,2.74c0.13,0.42,0.18,0.81,0.23,1.16c0.07,0.35,0.09,0.65,0.09,0.91
								c0.02,0.51,0.01,0.79-0.03,0.79C402.21,30.73,402.16,29.57,401.61,27.98z"/>
							<path class="st22" d="M348.18,21.2c0,0-0.87-0.18-2.17-0.5c-1.28-0.35-3-0.85-4.63-1.58c-1.63-0.74-3.2-1.6-4.22-2.47
								c-1.05-0.82-1.61-1.52-1.57-1.55c0.07-0.07,0.73,0.51,1.83,1.2c1.07,0.74,2.66,1.47,4.27,2.09c1.62,0.62,3.31,1.02,4.58,1.31
								c1.28,0.26,2.14,0.41,2.14,0.41s3.4,0.69,6.89,0.93c3.48,0.29,6.98,0.16,7,0.31c0.01,0.15-3.5,0.56-7.04,0.47
								C351.7,21.78,348.18,21.2,348.18,21.2z"/>
							<path class="st22" d="M395.14,27.38c-0.44-0.4-0.73-0.67-0.73-0.67s-1.1-1.14-2.38-2.13c-1.25-1.01-2.65-1.86-2.58-2
								c0.06-0.14,1.62,0.47,3.04,1.35c1.43,0.85,2.7,1.97,2.7,1.97s0.28,0.31,0.71,0.77c0.4,0.48,0.93,1.14,1.34,1.88
								c0.41,0.74,0.75,1.52,0.84,2.15c0.13,0.62,0.08,1.05,0.01,1.05c-0.09,0.01-0.19-0.38-0.43-0.92
								c-0.21-0.55-0.63-1.22-1.09-1.85C396.11,28.35,395.55,27.79,395.14,27.38z"/>
							<path class="st22" d="M393.36,31.03c-0.67-1.06-1.79-2.29-3.06-3.33c-1.31-1.01-2.78-1.8-3.91-2.3
								c-1.15-0.48-1.94-0.75-1.94-0.75s-0.2-0.07-0.54-0.19c-0.35-0.11-0.82-0.32-1.44-0.48c-1.2-0.37-2.84-0.74-4.51-1.03
								c-3.33-0.56-6.75-0.55-6.75-0.71c-0.01-0.15,3.42-0.43,6.86-0.07c1.71,0.18,3.42,0.49,4.68,0.82
								c0.64,0.14,1.15,0.33,1.51,0.43c0.37,0.11,0.58,0.18,0.58,0.18s0.81,0.32,1.99,0.87c1.17,0.58,2.67,1.48,3.98,2.62
								c1.29,1.17,2.36,2.56,2.93,3.71c0.57,1.15,0.78,1.99,0.73,2C394.38,32.85,394.02,32.08,393.36,31.03z"/>
							<path class="st22" d="M408.82,41.59c-0.1,0.01-0.2-0.38-0.48-0.93c-0.25-0.56-0.67-1.26-1.14-1.93
								c-0.93-1.35-2.13-2.44-2.13-2.44s-0.28-0.29-0.71-0.71c-0.45-0.39-1.06-0.92-1.77-1.27c-0.69-0.36-1.46-0.58-2.05-0.52
								c-0.59,0.01-0.99,0.19-1.03,0.1c-0.02-0.03,0.06-0.11,0.23-0.21c0.16-0.1,0.4-0.27,0.74-0.31c0.66-0.22,1.61-0.09,2.44,0.23
								c0.85,0.3,1.58,0.82,2.11,1.2c0.51,0.42,0.83,0.71,0.83,0.71s1.21,1.28,2.01,2.81c0.4,0.76,0.74,1.56,0.87,2.19
								C408.92,41.14,408.87,41.58,408.82,41.59z"/>
							<path class="st22" d="M400.06,42.69c-0.01-0.2-0.01-0.49-0.08-0.84c-0.07-0.7-0.31-1.61-0.62-2.51
								c-0.34-0.89-0.73-1.77-1.12-2.38c-0.36-0.63-0.65-1.02-0.59-1.09c0.04-0.04,0.45,0.26,0.95,0.83
								c0.51,0.57,1.04,1.43,1.49,2.33c0.42,0.91,0.76,1.88,0.9,2.63c0.1,0.37,0.12,0.7,0.16,0.92c0.03,0.22,0.04,0.35,0.04,0.35
								s0.01,0.52-0.08,1.31c-0.11,0.77-0.43,1.83-1.11,2.68c-0.68,0.88-1.7,1.31-2.43,1.52c-0.76,0.14-1.27,0.15-1.27,0.09
								c-0.01-0.08,0.46-0.25,1.13-0.49c0.63-0.33,1.46-0.8,1.94-1.58c0.48-0.76,0.67-1.65,0.72-2.33c0.02-0.69-0.02-1.14-0.02-1.14
								S400.06,42.89,400.06,42.69z"/>
							<path class="st22" d="M398.29,51.57c0.03-0.09,0.81,0.22,2.01,0.35c0.6,0.07,1.3,0.05,2.04-0.05c0.73-0.13,1.49-0.36,2.2-0.7
								c1.42-0.69,2.6-1.78,3.33-2.7c0.74-0.92,1.11-1.61,1.11-1.61s0.44-0.65,0.9-1.73c0.47-1.07,0.9-2.6,0.93-4.17
								c0-0.79-0.09-1.57-0.26-2.28c-0.2-0.71-0.42-1.36-0.73-1.88c-0.56-1.05-1.15-1.64-1.07-1.71c0.03-0.04,0.73,0.44,1.45,1.49
								c0.38,0.51,0.68,1.19,0.96,1.93c0.24,0.75,0.39,1.59,0.44,2.44c0.08,1.7-0.3,3.38-0.76,4.56c-0.45,1.19-0.9,1.93-0.9,1.93
								s-0.43,0.74-1.29,1.7c-0.84,0.97-2.19,2.1-3.79,2.76c-0.81,0.32-1.65,0.52-2.45,0.6c-0.81,0.05-1.56,0-2.18-0.14
								C398.99,52.07,398.26,51.62,398.29,51.57z"/>
							<path class="st22" d="M382.03,48.71c0.38,1.04,0.93,2.42,1.72,3.65c0.79,1.23,1.69,2.39,2.51,3.11
								c0.37,0.4,0.75,0.66,0.99,0.86c0.24,0.2,0.39,0.32,0.39,0.32c0,0,0.56,0.46,1.46,1.06c0.91,0.61,2.23,1.25,3.61,1.73
								c1.4,0.45,2.86,0.71,3.98,0.81c1.12,0.09,1.87,0.1,1.87,0.19c0.01,0.07-0.74,0.2-1.89,0.23c-1.14,0.03-2.68-0.1-4.18-0.48
								c-1.49-0.41-2.93-1.01-3.93-1.61c-1-0.59-1.63-1.06-1.63-1.06s-0.14-0.13-0.4-0.36c-0.25-0.23-0.63-0.53-1.02-0.98
								c-0.83-0.82-1.72-2.1-2.46-3.44c-0.73-1.35-1.18-2.82-1.44-3.93c-0.23-1.11-0.28-1.87-0.21-1.88
								C381.49,46.93,381.69,47.65,382.03,48.71z"/>
							<path class="st22" d="M334.44,42.59c0.49-1.11,1.09-2.17,1.69-2.86c0.56-0.71,1.07-1.07,1.11-1.03
								c0.07,0.07-0.32,0.52-0.75,1.28c-0.47,0.73-0.93,1.8-1.3,2.89c-0.38,1.09-0.57,2.23-0.7,3.08c-0.1,0.85-0.13,1.42-0.13,1.42
								s-0.01,0.14-0.03,0.39c0,0.25-0.06,0.61-0.05,1.04c-0.01,0.86,0.06,2,0.32,3.11c0.29,1.1,0.72,2.18,1.21,2.89
								c0.47,0.72,0.88,1.16,0.82,1.23c-0.04,0.04-0.56-0.29-1.17-0.97c-0.64-0.67-1.22-1.78-1.63-2.93
								c-0.38-1.17-0.55-2.39-0.59-3.31c-0.04-0.46,0-0.84-0.01-1.11c0-0.27,0-0.42,0-0.42s0.07-0.61,0.23-1.51
								C333.65,44.89,333.94,43.7,334.44,42.59z"/>
						</g>
					</g>
					<path class="st13" d="M360.23,101.75c-6.15-0.68-13.8-0.36-18.76-3.7c-2.72-1.83-4.63-4.77-5.05-9.58
						c-0.51-2.73-0.65-5.73-0.59-8.53c0.42,3.91,1.24,8.4,2.85,11.71c3.56,7.28,15.47,9.58,33.43,8.32
						c17.96-1.26,20.85-13.02,20.85-13.02l0.24,2.03c-6.71,6.33-5.05,17.06-8.84,19.6c-2.44,1.64-5.22,3.1-8.25,3.93
						c-2.1-4.1-4.95-8.37-7.59-7.96c-2.75,0.42-4.45,3.93-5.42,6.99c-0.45-0.2-0.88-0.39-1.33-0.62
						C360.39,107.31,364,103.67,360.23,101.75z"/>
				</g>
				<g>
					<path class="st21" d="M335.36,59.06c0.13,0.02,2.85,0.01,2.97,0.02l-0.08,0.35c0,0-0.06-0.12-0.15-0.32l-0.34,19.92
						c0,0,5.16-3.69,19.94-1.85c14.78,1.84,23.64,7.34,23.64,7.34s1.71-12.32,8.86-18.55l13.95,0.85c-2.82,1.13-9.09,5.24-9.4,10.95
						c-0.43,7.9,0.23,8.97,0.23,8.97c1.2,2.18-4.28,10.39-5.91,11.77c-3.27,2.79-7.54,4.89-11.77,5.87
						c-8.13,1.9-19.9,0.81-28.01-0.64c-17-3.04-18.07-9.58-17.61-18.19C332.25,75.16,334.38,62.17,335.36,59.06z"/>
					<path class="st18" d="M331.68,85.56c0.57-10.4,2.7-23.39,3.69-26.51c0.13,0.02,2.85,0.01,2.97,0.02l-0.08,0.35
						c0,0-0.06-0.12-0.15-0.32l-0.22,12.43c-3.51,4.36-4.97,9.94-2.3,15.58c4.55,9.63,14.19,12.78,23.94,12.64
						c6.53-0.1,12.27-0.05,18.25-3.17c4.04-2.11,6.67-5.68,8.74-9.6c1.48-2.81,2.47-6.08,2.6-9.26c0.14-3.16-1.27-4.61-3.02-6.73
						c0.27-0.45,0.56-0.89,0.86-1.33c0.01-0.02,0.03-0.04,0.05-0.06c0.29-0.42,0.59-0.83,0.91-1.23c0.03-0.03,0.06-0.07,0.08-0.1
						c0.31-0.39,0.65-0.77,0.99-1.14c0.03-0.03,0.06-0.06,0.09-0.09c0.36-0.37,0.72-0.73,1.11-1.06l1.7,0.1
						c2.85,0.17,8.54,0.52,11.04,0.67l0.2,0.02l0.67,0.04l0.23,0.02c0.06,0,0.11,0,0.11,0c-2.82,1.13-9.09,5.24-9.4,10.95
						c-0.43,7.9,0.23,8.97,0.23,8.97c1.2,2.18-4.28,10.39-5.91,11.77c-3.27,2.79-7.54,4.89-11.77,5.87
						c-8.13,1.9-19.9,0.81-28.01-0.64c-0.53-0.1-1.05-0.19-1.55-0.3C332.22,100.3,331.23,93.91,331.68,85.56z"/>
				</g>
				<g>
					<g>
						<path class="st21" d="M376.17,56.49c-0.07-0.1-0.34-0.05-0.69,0.01c-0.36,0.05-0.82,0.07-1.25,0.01
							c-0.44-0.08-0.85-0.21-1.14-0.36c-0.29-0.14-0.47-0.25-0.47-0.25s-0.83-0.27-1.54-0.86c-0.73-0.55-1.19-1.41-1.41-1.36
							c-0.23,0.03-0.14,1.18,0.54,2.13c0.64,0.96,1.7,1.56,1.7,1.56s0.28,0.11,0.71,0.21c0.43,0.11,1.04,0.15,1.63,0.08
							c0.59-0.09,1.14-0.32,1.48-0.58C376.08,56.82,376.23,56.58,376.17,56.49z"/>
					</g>
					<g>
						<path class="st21" d="M349.16,54.66c-0.22-0.12-0.84,0.54-1.57,0.8c-0.39,0.08-0.73,0.22-1.02,0.17c-0.28,0-0.45,0.01-0.45,0
							c0,0-0.18,0-0.45,0.01c-0.14,0.02-0.31,0.02-0.48-0.03c-0.17-0.04-0.37-0.05-0.56-0.1c-0.77-0.22-1.45-0.78-1.66-0.64
							c-0.17,0.1,0.24,1.04,1.13,1.66c0.22,0.16,0.47,0.26,0.69,0.37c0.23,0.12,0.45,0.2,0.66,0.22c0.41,0.07,0.69,0.13,0.69,0.13
							s0.28-0.05,0.69-0.15c0.42-0.05,0.9-0.37,1.35-0.66C349.06,55.73,349.34,54.73,349.16,54.66z"/>
					</g>
				</g>
				<g>
					<g>
						<g>
							<g>
								<path class="st1" d="M349.99,62.44c-0.13-0.04-0.44,0.58-0.72,1.55c-0.28,0.97-0.54,2.26-0.93,3.42
									c-0.38,1.19-1.11,2-1.69,2.47c-0.36,0.16-0.65,0.3-0.85,0.41c-0.13,0.09-0.2,0.03-0.23,0.05c0,0-0.48,0.21-1.15,0.1
									c-0.67-0.08-1.61-0.68-2.34-1.66c-1.5-1.93-2.25-4.52-2.57-4.43c-0.26,0.05-0.12,2.75,1.25,5.28
									c0.65,1.25,1.87,2.44,3.17,2.77c0.63,0.18,1.18,0.17,1.55,0.17c0.36-0.05,0.57-0.09,0.57-0.09s0.05-0.01,0.15-0.04
									c0.14-0.02,0.31-0.08,0.48-0.2c0.31-0.18,0.74-0.45,1.23-0.78c0.9-0.84,1.72-2.25,1.94-3.66c0.24-1.38,0.25-2.72,0.27-3.69
									C350.14,63.14,350.15,62.49,349.99,62.44z"/>
							</g>
							<g>
								<path class="st1" d="M368.64,65.38c-0.15,0.01-0.28,0.72-0.45,1.8c-0.16,1.07-0.35,2.54-0.24,4.07
									c0.02,1.54,0.73,3.2,1.61,4.15c0.24,0.23,0.45,0.44,0.65,0.62c0.11,0.1,0.22,0.2,0.31,0.29c0.14,0.06,0.26,0.12,0.37,0.17
									c0.39,0.17,0.61,0.27,0.62,0.26c0,0,0.25,0.03,0.67,0.09c0.42,0.03,1.05-0.01,1.69-0.23c1.33-0.41,2.57-1.49,3.55-2.66
									c1.97-2.35,2.95-5.18,2.66-5.29c-0.27-0.13-1.74,2.38-3.8,4.23c-1.01,0.92-2.16,1.65-2.97,1.78
									c-0.81,0.17-1.22-0.07-1.23-0.04c0,0.02-0.11-0.04-0.32-0.1c-0.11,0.05-0.37-0.27-0.73-0.51c-0.64-0.57-1.32-1.61-1.54-2.97
									c-0.28-1.32-0.35-2.75-0.45-3.84C368.95,66.11,368.79,65.38,368.64,65.38z"/>
							</g>
						</g>
					</g>
					<g>
						<path class="st1" d="M349.61,79.68c0.56,0.89,6.12,3.77,13.84,1.72c0,0-2.62,7.47-8.83,8.42
							C348.41,90.75,349.61,79.68,349.61,79.68z"/>
						<g>
							<path class="st6" d="M364.56,80.56c0.02,0.02-0.09,0.11-0.29,0.26c-0.2,0.15-0.49,0.37-0.89,0.55
								c-0.76,0.42-1.9,0.72-3.04,0.89c-2.3,0.35-4.61,0-4.61,0s-2.32-0.35-4.41-1.37c-1.04-0.5-2.03-1.12-2.64-1.74
								c-0.33-0.28-0.54-0.58-0.69-0.78c-0.15-0.2-0.22-0.32-0.2-0.34c0.06-0.05,0.41,0.41,1.08,0.91c0.64,0.53,1.64,1.06,2.66,1.48
								c2.07,0.86,4.3,1.12,4.3,1.12s2.21,0.42,4.45,0.22c1.11-0.1,2.21-0.32,2.99-0.64C364.05,80.83,364.51,80.49,364.56,80.56z"/>
						</g>
						<g>
							<path class="st6" d="M355.89,91.45c0.05,0.04-0.81,0.82-1.97,1.1c-0.56,0.06-1.19,0.17-1.61,0.01
								c-0.44-0.13-0.73-0.22-0.73-0.22c-0.04,0.08-1.1-0.59-1.68-1.61c-0.28-0.51-0.49-1.07-0.43-1.52
								c0.02-0.44,0.18-0.7,0.21-0.68c0.07,0.03-0.06,1.11,0.66,1.92c0.63,0.84,1.54,1.31,1.56,1.23c0,0,0.88,0.46,1.94,0.35
								C354.87,91.92,355.81,91.34,355.89,91.45z"/>
						</g>
					</g>
				</g>
			</g>
		</g>
	</g>
</g>
</svg>
