<?xml version="1.0" encoding="utf-8"?>
<!-- Generator: Adobe Illustrator 23.0.5, SVG Export Plug-In . SVG Version: 6.00 Build 0)  -->
<svg version="1.1" id="OBJECTS" xmlns="http://www.w3.org/2000/svg" xmlns:xlink="http://www.w3.org/1999/xlink" x="0px" y="0px"
	 viewBox="0 0 750 500" style="enable-background:new 0 0 750 500;" xml:space="preserve">
<style type="text/css">
	.st0{fill:#FBC0A4;}
	.st1{fill:#F8E8D8;}
	.st2{fill:#F69D7D;}
	.st3{fill:url(#SVGID_1_);}
	.st4{fill:#3E3533;}
	.st5{fill:url(#SVGID_2_);}
	.st6{fill:#302624;}
	.st7{fill:#330E00;}
	.st8{fill:url(#SVGID_3_);}
	.st9{fill:url(#SVGID_4_);}
	.st10{fill:#F84511;}
	.st11{fill:#CB4453;}
	.st12{fill:#DD5664;}
	.st13{fill:url(#SVGID_5_);}
	.st14{fill:url(#SVGID_6_);}
	.st15{fill:url(#SVGID_7_);}
	.st16{fill:url(#SVGID_8_);}
	.st17{fill:url(#SVGID_9_);}
	.st18{fill:url(#SVGID_10_);}
	.st19{fill:#E79355;}
	.st20{fill:#B07347;}
	.st21{fill:#FFBD9B;}
</style>
<g>
	<path class="st0" d="M439.64,161.87c0,0,2.14-3.71,3.99-5.05c1.85-1.34,4.81-1.08,7.12-3.61c2.3-2.53,5.88-0.04,5.95-4.83
		c0.06-4.8-2.05-3.51,0.38-5.78c2.43-2.27-1.41-4.6-1.41-4.6s3.2-2.99,1.98-5.54c-1.21-2.56-5.64-2.49-14.27,0.9
		c0,0-4.79-2.5-6.03-0.9c-1.24,1.6-0.09,15.92-0.09,15.92l-4.86,8.87L439.64,161.87z"/>
	<path class="st1" d="M432.41,153.76l2.65-4.24c0,0,8.28,4.61,10.55,11.02l-4.14,2.82L432.41,153.76z"/>
	<path class="st2" d="M446.63,135.34c0.2-0.72,0.74-1.28,1.26-1.81c0.78-0.8,1.56-1.59,2.35-2.39c2.65-0.6,4.56-0.62,5.83-0.12
		c-2.76,2.22-5.65,4.29-8.64,6.18C446.71,136.97,446.43,136.06,446.63,135.34z"/>
	<path class="st2" d="M443.38,133.36c4.42,3.86,7.51,8.86,6.35,10.06c-1.16,1.2-6.35-2.58-6.35-2.58l0.58,4.31
		c0,0,5.28,2.86,7.05-1.23C452.79,139.82,443.38,133.36,443.38,133.36z"/>
	
		<linearGradient id="SVGID_1_" gradientUnits="userSpaceOnUse" x1="956.7762" y1="117.0276" x2="993.2037" y2="117.0276" gradientTransform="matrix(-1 0 0 1 1438.8112 0)">
		<stop  offset="0" style="stop-color:#5C251C"/>
		<stop  offset="0.185" style="stop-color:#61271E"/>
		<stop  offset="1" style="stop-color:#722F27"/>
	</linearGradient>
	<path class="st3" d="M445.77,135.52c-0.05-0.05-0.11-0.09-0.17-0.1l34.5-37.64l1.92,2.26l-35.57,36.25
		C446.25,136.02,446.02,135.76,445.77,135.52z"/>
	<path class="st4" d="M386.24,135.08c1.62,3.52,17.05,40.93,17.05,40.93s4.36-4.8,4.01,0l24.43-25.07c0,0,11.26,3.82,12.17,13.76
		c0,0-30.36,41.74-41.37,42.88c-11.02,1.13-21.01-29.87-21.01-29.87L386.24,135.08z"/>
	<linearGradient id="SVGID_2_" gradientUnits="userSpaceOnUse" x1="393.7523" y1="173.0522" x2="406.8688" y2="161.8647">
		<stop  offset="0" style="stop-color:#302624;stop-opacity:0.5"/>
		<stop  offset="0.9947" style="stop-color:#302624;stop-opacity:0"/>
	</linearGradient>
	<path class="st5" d="M386.24,135.08c1.62,3.52,17.05,40.93,17.05,40.93s4.36-4.8,4.01,0l24.43-25.07c0,0,11.26,3.82,12.17,13.76
		c0,0-30.36,41.74-41.37,42.88c-11.02,1.13-21.01-29.87-21.01-29.87L386.24,135.08z"/>
	<path class="st4" d="M323.31,88.75c0,0,2.99-0.16,4.27-1.73c1.28-1.57-2.92-14.44-2.92-14.44s3.99-3.45,4.05-8.29
		c0.06-4.84-3.15-7.34-8.13-7.03c-4.99,0.31-12.18,6.94-12.18,6.94l3.66,1.88c0,0,1.18,10.98,2.74,13.8
		C316.35,82.69,323.31,88.75,323.31,88.75z"/>
	<path class="st4" d="M313.7,67.33c1.46,6.85,6.31,23.78,6.31,23.78l4.31-4.91l-2.16-21.16L313.7,67.33z"/>
	<path class="st6" d="M331.74,411.06l1.92-10.28l11.72,1.71l-0.63,9.65c0,0-2.2,4.32-8.35,4.43
		C330.24,416.66,331.74,411.06,331.74,411.06z"/>
	<polygon class="st6" points="384.05,404.52 383.67,412.88 385.91,418.33 395.58,415.25 397.69,409.05 398.4,399.41 	"/>
	<path class="st6" d="M420.05,418.73c-3-1.5-12.53-4.38-19.2-9.66c-0.74-0.58-1.68-0.8-2.61-0.63c0,0-0.51,0.09-0.51,0.09
		c0,0-0.87,4.48-5.79,6.06c-3.31,1.07-8.27-1.71-8.27-1.71l-0.9,11.86h38.17c0.78-0.4,1.02-1.23,1.02-1.23
		S423.87,420.64,420.05,418.73z"/>
	<path class="st4" d="M385.92,216.11c0,0,5.89,75.18,6.47,82.02c0.58,6.83,7.79,108.6,7.79,108.6c-9.04,3.53-18.77,0.82-18.77,0.82
		l-15.79-102.59l-10.4-54.71l-3.5-0.97c0,0-1.19,66.61-1.21,66.27c-0.02-0.34-1.5,89.44-1.5,89.44c-8.75,4.42-20.92-0.36-20.92-0.36
		s-3.79-87.1-4.85-92.19c-1.07-5.09-1.35-102.79-1.35-102.79L385.92,216.11z"/>
	<path class="st6" d="M387.7,236.52c-12.89,4.47-42.06,11.13-65.8,1.39c-0.03-6.1,0.05-14.19,0.04-18.47l64.7,5.62
		C386.92,228.81,387.29,231.31,387.7,236.52z"/>
	<g id="XMLID_3475_">
		<path id="XMLID_3476_" class="st7" d="M383.79,209.31c-0.5-1.84-0.91-3-0.91-3l-57.12,2.34c0,0-0.2,1.17-0.51,3.16
			c0.28,0.39,0.51,0.69,0.51,0.69C351.26,222.91,369.72,222.92,383.79,209.31z"/>
	</g>
	<path class="st4" d="M313.2,160.73l10.01,36.78l-5.09,34.37c0,0,45.22,17.19,73.6-1.33l-5.83-76.8L313.2,160.73z"/>
	<g id="XMLID_3472_">
		<g id="XMLID_3473_">
			<path id="XMLID_3474_" class="st4" d="M376.74,128.45c2.27,0.95,17.68,5.16,9.15,25.31l-2.6,54.32c0,0,2.9,8.37,1.07,10.15
				c-14.08,13.66-32.56,13.66-58.08,3.24c0,0-1.34-1.71-1.52-2.4c-0.93-3.69,2.18-14,2.18-14l-14.26-44.34
				c0,0-14.06-19.13-4.75-26.07C322.58,123.74,352.76,118.35,376.74,128.45z"/>
		</g>
	</g>
	<linearGradient id="SVGID_3_" gradientUnits="userSpaceOnUse" x1="349.7375" y1="168.7681" x2="354.3629" y2="222.2899">
		<stop  offset="0" style="stop-color:#302624;stop-opacity:0.5"/>
		<stop  offset="0.9947" style="stop-color:#302624;stop-opacity:0"/>
	</linearGradient>
	<path class="st8" d="M391.71,230.55l-3.38-44.57c-6.57,7.73-11.81,16.59-15.37,26.09c-15.07-7.82-28.25-19.24-38.13-33.04
		c3.72,9.94,7.44,19.88,11.15,29.82c-9.64-11.32-24.84-41.87-34.48-53.19l11.71,41.85l-5.09,34.37
		C318.12,231.88,363.34,249.07,391.71,230.55z"/>
	<path class="st6" d="M362.14,121.86c0,0,5.63-0.24,6.65,0.39c1.02,0.63,3.58,8.02,4.1,9.19c0.51,1.17-6.84,8.05-6.84,8.05
		s6.07,9.96,5.82,10.77c-0.25,0.8-11.02,44.36-11.02,44.36s-26.09-38.92-26.63-40.85c-0.53-1.93,2.5-11.95,2.5-11.95
		s-7.73-5.69-8.2-6.94c-0.47-1.24-1.46-9.18,0-10.19c0.9-0.62,6.09-1.79,6.09-1.79L362.14,121.86z"/>
	<path class="st1" d="M334.61,124.78L334.61,124.78c0,0,8,20.64,15.04,38.81c5.54,14.3,11.66-0.66,11.66-0.66l1.73-40.98
		c-0.38-0.03-1.18-0.13-1.56-0.15L334.61,124.78z"/>
	<linearGradient id="SVGID_4_" gradientUnits="userSpaceOnUse" x1="352.8414" y1="133.8616" x2="373.4875" y2="190.2561">
		<stop  offset="0" style="stop-color:#CFD4D8"/>
		<stop  offset="1" style="stop-color:#CFD4D8;stop-opacity:0"/>
	</linearGradient>
	<path class="st9" d="M361.04,135.04c1.6-0.38,1.68-5.39,1.68-5.39l0.32-7.59c-0.02-0.04-0.03-0.08-0.05-0.11
		c-0.4-0.03-1.14-0.13-1.51-0.15l-24.76,2.74c0.09,0.29-0.9,2.36-0.72,2.94c1.43,4.22,6.06,10.29,6.98,10.44
		c1.09,0.17,3.86-3,4.23-4.04c0.57,0.51,1.54,2.05,2.11,2.56c0.3,7.38,0.03,17.09-0.08,26.06c4.29,11.07,8.29,21.39,10.02,25.84
		c0.31,0.42,0.63,0.81,0.94,1.19l0.92-21.93c-2.79-10.56-5.58-21.11-8.38-31.67c0.89-1.21,2.03-2.12,2.92-3.33
		C357.14,134.05,358.97,135.04,361.04,135.04z"/>
	<g id="XMLID_3470_">
		<g id="XMLID_3471_">
			<path class="st0" d="M355.31,125.98c-2.4,1.39-7.36,2.11-10.06,2.18c-4.01,0.11-2.4-2.24-3.73-2.59l-13-30.01l23.51,10.6l0.05,1
				L355.31,125.98z"/>
		</g>
	</g>
	<g id="XMLID_3464_">
		<g>
			<g id="XMLID_9_">
				<path class="st2" d="M348.85,116.64c-2.58-0.3-4.86-1.03-7.22-2.1c-2.22-1.02-4.37-2.18-6.41-3.51l-6.7-15.47l23.51,10.6l0.05,1
					l1.7,9.95C352.15,116.93,350.5,116.83,348.85,116.64z"/>
			</g>
		</g>
	</g>
	<path class="st10" d="M361.31,162.93l-8.37-28.25l3.66-4.11l-6.22-3.8l-4.75,4.39l4.43,3.92c0,0-1.05,13.09-0.41,28.51
		c5.54,14.3,10.49,27.07,10.49,27.07L361.31,162.93z"/>
	<g id="XMLID_3462_">
		<g id="XMLID_3463_">
			<path class="st1" d="M338.23,117.96c0,0,9.45,9.05,11.88,8.66c2.42-0.39,3.69-9.52,3.69-9.52s8.63,2.48,9.69,3.69
				c1.06,1.21-1.52,13.02-2.66,13.6c-2.39,1.21-9.59-6.83-10.9-5.81c-1.31,1.03-5.02,7.89-6.25,7.75
				c-1.22-0.14-10.96-9.74-10.41-13.27C333.81,119.53,338.23,117.96,338.23,117.96z"/>
		</g>
	</g>
	<path class="st0" d="M320.06,79.58c0,0-8.12-1.85-7,7.84c1.13,9.7,8.14,9.89,10.22,10.31c0,0,3.86,17.26,25.16,15.61
		c21.3-1.65,17.81-18.14,17.65-29.08c-0.16-10.94,1.06-29.92-12.88-31.32C339.15,51.52,318.83,52.45,320.06,79.58z"/>
	<g>
		<path class="st11" d="M351.35,99.4c-0.16-0.61-0.38-1.2-0.66-1.72c0,0-4.74-0.46-4.84-0.27c-0.56,1.12-0.57,2.49-0.37,3.75
			c0.18,1.09,0.52,2.19,1.28,3c0.75,0.8,2,1.23,3,0.76C351.63,104.06,351.92,101.59,351.35,99.4z"/>
		<path class="st12" d="M345.4,99.09c1.1,0.16,2.12,0.67,3.01,1.33c1.13,0.85,2.05,1.97,2.69,3.23c-0.3,0.55-0.73,0.99-1.33,1.27
			c-1,0.46-2.25,0.04-3-0.76c-0.75-0.8-1.1-1.91-1.28-3C345.37,100.48,345.33,99.77,345.4,99.09z"/>
		<path class="st1" d="M345.85,97.41c0.1-0.19,0.2-0.38,0.33-0.55c1.65-2.23,3.44-1.17,4.5,0.82
			C349.08,97.59,347.47,97.5,345.85,97.41z"/>
	</g>
	<g>
		<path class="st2" d="M350.94,94.86c-0.02-0.21,0.68-0.39,1.05-1.3c0.19-0.45,0.27-0.97,0.13-1.62c-0.12-0.64-0.44-1.35-0.81-2.15
			c-1.49-3.23-2.4-5.98-2.03-6.15c0.36-0.17,1.86,2.31,3.35,5.55c0.37,0.81,0.73,1.68,0.81,2.57c0.04,0.45,0.02,0.87-0.08,1.29
			c-0.11,0.41-0.28,0.75-0.49,1.03c-0.41,0.57-0.95,0.86-1.33,0.91C351.14,95.06,350.94,94.95,350.94,94.86z"/>
	</g>
	<g>
		<path class="st4" d="M334.38,78.46c0.08-0.2,0.72-0.09,1.7-0.05c0.98,0.05,2.3,0,3.7-0.45c1.34-0.43,2.48-1.18,3.24-1.79
			c0.39-0.31,0.7-0.57,0.92-0.75c0.23-0.18,0.4-0.27,0.48-0.21c0.08,0.06,0.08,0.24-0.02,0.53c-0.11,0.3-0.31,0.7-0.65,1.14
			c-0.66,0.89-1.88,1.92-3.56,2.47c-1.62,0.53-3.26,0.41-4.3,0.07C334.83,79.09,334.3,78.63,334.38,78.46z"/>
	</g>
	<g>
		<path class="st4" d="M350.9,76.49c-0.07-0.07-0.03-0.25,0.11-0.52c0.14-0.27,0.38-0.64,0.79-1.05c0.4-0.41,0.99-0.81,1.7-1.1
			c0.35-0.14,0.73-0.26,1.12-0.35c0.19-0.05,0.4-0.08,0.61-0.12c0.2-0.03,0.39-0.06,0.59-0.09c1.76-0.21,3.3,0.23,4.28,0.76
			c0.49,0.27,0.85,0.54,1.07,0.77c0.21,0.23,0.29,0.39,0.24,0.48c-0.05,0.09-0.24,0.07-0.53,0.01c-0.28-0.07-0.67-0.17-1.15-0.3
			c-0.95-0.24-2.3-0.45-3.71-0.28c-0.2,0.03-0.39,0.05-0.58,0.08c-0.17,0.03-0.35,0.05-0.52,0.08c-0.34,0.06-0.67,0.14-0.97,0.22
			c-0.6,0.17-1.09,0.39-1.5,0.64C351.62,76.23,351.05,76.64,350.9,76.49z"/>
	</g>
	
		<radialGradient id="SVGID_5_" cx="-1330.7299" cy="175.0912" r="5.7126" gradientTransform="matrix(-0.999 0.0455 0.0455 0.999 -1002.3589 -18.5448)" gradientUnits="userSpaceOnUse">
		<stop  offset="0" style="stop-color:#F69D7D;stop-opacity:0.7"/>
		<stop  offset="1" style="stop-color:#F69D7D;stop-opacity:0"/>
	</radialGradient>
	<path class="st13" d="M340.71,95.56c0.14,3.15-2.3,5.82-5.45,5.97c-3.15,0.14-5.82-2.3-5.97-5.45c-0.14-3.15,2.3-5.82,5.45-5.97
		C337.9,89.97,340.57,92.41,340.71,95.56z"/>
	
		<radialGradient id="SVGID_6_" cx="-1356.595" cy="175.0919" r="5.7125" gradientTransform="matrix(-0.999 0.0455 0.0455 0.999 -1002.3589 -18.5448)" gradientUnits="userSpaceOnUse">
		<stop  offset="0" style="stop-color:#F69D7D;stop-opacity:0.7"/>
		<stop  offset="1" style="stop-color:#F69D7D;stop-opacity:0"/>
	</radialGradient>
	<path class="st14" d="M366.55,94.39c0.14,3.15-2.3,5.82-5.45,5.97c-3.15,0.14-5.82-2.3-5.97-5.45c-0.14-3.15,2.3-5.82,5.45-5.97
		C363.74,88.8,366.41,91.24,366.55,94.39z"/>
	<path class="st4" d="M342.71,84.47c0.07,1.58-1.15,2.92-2.73,2.99c-1.58,0.07-2.92-1.15-2.99-2.73c-0.07-1.58,1.15-2.92,2.73-2.99
		C341.3,81.67,342.64,82.89,342.71,84.47z"/>
	<path class="st4" d="M359,83.73c0.07,1.58-1.15,2.92-2.73,2.99c-1.58,0.07-2.92-1.15-2.99-2.73c-0.07-1.58,1.15-2.92,2.73-2.99
		C357.6,80.93,358.93,82.15,359,83.73z"/>
	
		<linearGradient id="SVGID_7_" gradientUnits="userSpaceOnUse" x1="-1227.3101" y1="89.0274" x2="-1223.04" y2="86.6362" gradientTransform="matrix(-1 0 0 1 -906.3675 0)">
		<stop  offset="0" style="stop-color:#F69D7D"/>
		<stop  offset="1" style="stop-color:#F69D7D;stop-opacity:0.6"/>
	</linearGradient>
	<path class="st15" d="M315.84,83.9c-0.74,2.57,0.31,5.27,1.34,7.73c0.31,0.73,0.65,1.5,1.3,1.95c0.66,0.45,1.72,0.38,2.07-0.34
		c0.33-0.69-0.16-1.47-0.54-2.14c-0.38-0.66-0.6-1.66,0.04-2.08c0.3-0.19,0.69-0.18,1.01-0.34c0.69-0.36,0.68-1.34,0.51-2.1
		c-0.24-1.05-0.63-2.06-1.15-3c-0.51-0.92-1.32-1.87-2.37-1.85C316.94,81.76,316.14,82.84,315.84,83.9z"/>
	<path class="st6" d="M342.2,412.74c-4.61-4.35-8.71-0.68-8.71-0.68l-1.75-0.99c-2.54,3.81-7.42,8.37-8.04,10.61
		c-1.17,4.24,0.91,9.18,7.74,9.18c6.66,0,13.08-4.07,13.8-7.38c0.43-1.98-0.27-7.34-0.49-11.32L342.2,412.74z"/>
	<g>
		
			<linearGradient id="SVGID_8_" gradientUnits="userSpaceOnUse" x1="-953.0349" y1="299.3563" x2="-955.3408" y2="416.1827" gradientTransform="matrix(-1 0 0 1 -571.3836 0)">
			<stop  offset="0" style="stop-color:#302624;stop-opacity:0.5"/>
			<stop  offset="0.9947" style="stop-color:#302624;stop-opacity:0"/>
		</linearGradient>
		<path class="st16" d="M365.63,304.96l-0.31-1.63c3.44,12.04,8.25,28.3,9.11,28.35c1.37,0.07,15.03-2.12,15.63-3.92
			c0.27-0.81,1.41-13.06,2.59-26.41c1.41,18.81,7.54,105.38,7.54,105.38c-9.04,3.53-18.77,0.82-18.77,0.82L365.63,304.96z"/>
		
			<linearGradient id="SVGID_9_" gradientUnits="userSpaceOnUse" x1="-909.0272" y1="300.2249" x2="-911.3329" y2="417.0513" gradientTransform="matrix(-1 0 0 1 -571.3836 0)">
			<stop  offset="0" style="stop-color:#302624;stop-opacity:0.5"/>
			<stop  offset="0.9947" style="stop-color:#302624;stop-opacity:0"/>
		</linearGradient>
		<path class="st17" d="M328.1,404.62c0-0.01,0-0.07-0.01-0.19c0-0.03,0-0.05,0-0.08c0-0.09-0.01-0.2-0.01-0.34
			c-0.02-0.38-0.04-0.94-0.07-1.65c-0.01-0.16-0.01-0.33-0.02-0.51c-0.01-0.32-0.03-0.67-0.05-1.04c-0.01-0.14-0.01-0.29-0.02-0.44
			c-0.04-0.83-0.08-1.76-0.12-2.79c-0.01-0.17-0.02-0.34-0.02-0.51c-0.03-0.59-0.05-1.2-0.08-1.84c0-0.01,0-0.02,0-0.03
			c-0.03-0.68-0.06-1.39-0.1-2.13c-0.01-0.12-0.01-0.24-0.02-0.35c-0.08-1.82-0.17-3.8-0.27-5.91c-0.01-0.21-0.02-0.42-0.03-0.63
			c-0.16-3.61-0.35-7.58-0.54-11.74c0-0.07-0.01-0.14-0.01-0.21c-0.07-1.56-0.15-3.16-0.22-4.77c0-0.05-0.01-0.11-0.01-0.16
			c-0.63-13.33-1.35-27.93-1.97-39.04c0-0.01,0-0.03,0-0.04c-0.16-2.77-0.31-5.33-0.45-7.59c2.78,2.01,7.5,5.2,9.42,5.14
			c2.8-0.09,12.24-7.77,12.79-11.18c0.44-2.73,3.66-28.37,4.93-38.55c-0.32,17.98-0.68,37.71-0.7,37.52c0-0.01,0,0.11-0.01,0.36
			c0,0.05,0,0.11,0,0.17c-0.02,1.02-0.06,3.49-0.12,6.97c0,0.21-0.01,0.41-0.01,0.63c-0.02,1.27-0.05,2.67-0.07,4.17
			c-0.01,0.5-0.02,1.01-0.03,1.54c-0.04,2.09-0.07,4.36-0.11,6.76c-0.01,0.3-0.01,0.6-0.02,0.91c-0.44,26.46-1.13,67.94-1.13,67.94
			c-1.64,0.83-3.4,1.33-5.18,1.61c-0.59,0.09-1.19,0.16-1.78,0.2c-0.59,0.04-1.18,0.06-1.77,0.07c-0.59,0-1.16-0.01-1.73-0.05
			c-0.57-0.03-1.13-0.08-1.68-0.14c-0.55-0.06-1.08-0.13-1.6-0.21c-0.78-0.12-1.51-0.26-2.2-0.41c-0.46-0.1-0.89-0.2-1.3-0.3
			C329.54,405.19,328.1,404.62,328.1,404.62L328.1,404.62z"/>
	</g>
	<g>
		<path class="st4" d="M320.06,79.58c0,0,3.34,2.46,4.26,7.89h2.45v-9.38c0,0,7.43-2.04,4.61-12.96
			c-2.82-10.92-13.88-0.07-13.88-0.07L320.06,79.58z"/>
	</g>
	<path class="st4" d="M341.26,62.35c0,0-7.93,5.72-17.87,1.22c-9.94-4.5-9.89-11.15-9.89-11.15s8.7-0.35,14.6-6.9
		c5.9-6.55,23.1-13.2,36.08-4.2c12.97,9,8.89,22.21,1.12,24.44c-7.77,2.23-12.17-3.17-14.14-1.98
		C349.2,64.98,346.1,66.27,341.26,62.35z"/>
	<linearGradient id="SVGID_10_" gradientUnits="userSpaceOnUse" x1="343.1834" y1="66.5418" x2="339.6289" y2="49.0563">
		<stop  offset="0" style="stop-color:#F8E8D8;stop-opacity:0.2"/>
		<stop  offset="1" style="stop-color:#F8E8D8;stop-opacity:0"/>
	</linearGradient>
	<path class="st18" d="M368.99,45.71c-0.8-0.98-1.75-1.94-2.85-2.88c-15.03,9.74-33.1,14.75-51,14.16c0.33,0.51,0.72,1.04,1.19,1.59
		c-1.51,0.75-3,1.73-4.27,2.65c7.36,1.79,15.05,2.24,22.55,1.23C347.47,60.73,359.7,54.75,368.99,45.71z"/>
	<g id="XMLID_3461_">
		<polygon class="st19" points="359.04,216.99 287.55,222.58 291.08,268.98 363,262.31 		"/>
	</g>
	<path class="st20" d="M319.44,220.09c1.61,6.21,1.05,12.94,1.28,19.44c0.27,7.64,2.26,16.11,8.68,20.26
		c5.98,3.86,13.91,2.71,20.56,0.19c4.32-1.64,8.45-3.79,12.27-6.38l0.76,8.72l-52.43,4.86c0.31-3.66-0.64-7.39-1.59-10.98
		c-2.99-11.35-5.98-22.7-8.97-34.05c-0.05-0.18-0.09-0.35-0.14-0.53L319.44,220.09z"/>
	<path class="st21" d="M310.4,248.36c0,0,0.88,4.74,0.96,6.71c0.09,1.98,0.05,4.21,0.82,7.25c0.77,3.04-2.08,2.42,1.56,5.7
		c3.64,3.28,3.73,1.2,4.24,4.14c0.51,2.94,5.2,1.59,5.2,1.59s0.71,1.72,3.28,2.75c2.58,1.03,2.76-0.15,4.54-7.41
		c0,0,5.01-1.81,4.41-3.6c-0.6-1.8-13.35-8.74-13.35-8.74l-3.69-9.61L310.4,248.36z"/>
	<path class="st1" d="M308.24,252.51l1.27,6.41c0,0,12.99-1.8,16.62-4.1l-1.65-7.94L308.24,252.51z"/>
	<path class="st4" d="M296.87,190.66c0,0,0.43-44.39,9.44-54.37l15.58,20.15l-2.85,40.97c0.3,8.05,8.29,52.69,8.29,52.69
		s-10.21,4.56-21.04,5.23C306.29,255.33,296.34,203.89,296.87,190.66z"/>
</g>
</svg>
